Roboto Serif Deck-Medium Italic.ufo
<glyph name="exclam" format="2">
  <advance width="295"/>
  <unicode hex="0021"/>
  <outline>
    <contour>
      <point x="309" y="730" type="curve"/>
      <point x="159" y="730" type="line"/>
      <point x="129" y="556"/>
      <point x="152" y="455"/>
      <point x="112" y="227" type="curve"/>
      <point x="178" y="227" type="line"/>
      <point x="219" y="450"/>
      <point x="279" y="546"/>
    </contour>
    <component base="period" xOffset="-2.154887218045115"/>
  </outline>
</glyph>
<glyph name="dollar" format="2">
  <advance width="560"/>
  <unicode hex="0024"/>
  <outline>
    <contour>
      <point x="261" y="12" type="curve" smooth="yes"/>
      <point x="413" y="12"/>
      <point x="512" y="91"/>
      <point x="512" y="223" type="curve" smooth="yes"/>
      <point x="512" y="334"/>
      <point x="426" y="379"/>
      <point x="330" y="421" type="curve" smooth="yes"/>
      <point x="329" y="421" type="line"/>
      <point x="368" y="642" type="line"/>
      <point x="403" y="638"/>
      <point x="430" y="629"/>
      <point x="451" y="613" type="curve"/>
      <point x="435" y="521" type="line"/>
      <point x="537" y="521" type="line"/>
      <point x="555" y="624" type="line"/>
      <point x="527" y="653"/>
      <point x="466" y="687"/>
      <point x="380" y="696" type="curve"/>
      <point x="397" y="790" type="line"/>
      <point x="336" y="790" type="line"/>
      <point x="320" y="698" type="line"/>
      <point x="177" y="693"/>
      <point x="92" y="621"/>
      <point x="92" y="510" type="curve" smooth="yes"/>
      <point x="92" y="403"/>
      <point x="168" y="360"/>
      <point x="256" y="320" type="curve"/>
      <point x="212" y="71" type="line"/>
      <point x="166" y="78"/>
      <point x="131" y="94"/>
      <point x="106" y="117" type="curve"/>
      <point x="126" y="218" type="line"/>
      <point x="16" y="218" type="line"/>
      <point x="-4" y="115" type="line"/>
      <point x="27" y="76"/>
      <point x="101" y="30"/>
      <point x="200" y="16" type="curve"/>
      <point x="176" y="-120" type="line"/>
      <point x="237" y="-120" type="line"/>
      <point x="260" y="12" type="line"/>
      <point x="260" y="12"/>
      <point x="261" y="12"/>
    </contour>
    <contour>
      <point x="190" y="543" type="curve" smooth="yes"/>
      <point x="190" y="600"/>
      <point x="230" y="638"/>
      <point x="313" y="643" type="curve"/>
      <point x="278" y="444" type="line"/>
      <point x="222" y="471"/>
      <point x="190" y="494"/>
    </contour>
    <contour>
      <point x="408" y="184" type="curve" smooth="yes"/>
      <point x="408" y="114"/>
      <point x="354" y="68"/>
      <point x="267" y="67" type="curve"/>
      <point x="307" y="296" type="line"/>
      <point x="369" y="266"/>
      <point x="408" y="239"/>
    </contour>
  </outline>
</glyph>
<glyph name="parenleft" format="2">
  <advance width="341"/>
  <unicode hex="0028"/>
  <outline>
    <contour>
      <point x="159" y="239" type="curve" smooth="yes"/>
      <point x="159" y="466"/>
      <point x="290" y="649"/>
      <point x="413" y="747" type="curve"/>
      <point x="413" y="750" type="line"/>
      <point x="348" y="750" type="line"/>
      <point x="200" y="664"/>
      <point x="45" y="489"/>
      <point x="45" y="252" type="curve" smooth="yes"/>
      <point x="45" y="91"/>
      <point x="120" y="-47"/>
      <point x="207" y="-130" type="curve"/>
      <point x="272" y="-130" type="line"/>
      <point x="272" y="-127" type="line"/>
      <point x="216" y="-57"/>
      <point x="159" y="75"/>
    </contour>
  </outline>
</glyph>
<glyph name="plus" format="2">
  <advance width="560"/>
  <unicode hex="002B"/>
  <outline>
    <contour>
      <point x="499" y="373" type="line"/>
      <point x="321" y="373" type="line"/>
      <point x="354" y="559" type="line"/>
      <point x="282" y="559" type="line"/>
      <point x="250" y="373" type="line"/>
      <point x="72" y="373" type="line"/>
      <point x="61" y="309" type="line"/>
      <point x="238" y="309" type="line"/>
      <point x="206" y="123" type="line"/>
      <point x="277" y="123" type="line"/>
      <point x="309" y="309" type="line"/>
      <point x="488" y="309" type="line"/>
    </contour>
  </outline>
</glyph>
<glyph name="comma" format="2">
  <advance width="278"/>
  <unicode hex="002C"/>
  <outline>
    <contour>
      <point x="77" y="-158" type="line"/>
      <point x="170" y="-98"/>
      <point x="221" y="-22"/>
      <point x="221" y="53" type="curve" smooth="yes"/>
      <point x="221" y="104"/>
      <point x="190" y="140"/>
      <point x="137" y="140" type="curve" smooth="yes"/>
      <point x="88" y="140"/>
      <point x="55" y="107"/>
      <point x="55" y="64" type="curve" smooth="yes"/>
      <point x="55" y="22"/>
      <point x="88" y="-8"/>
      <point x="136" y="-8" type="curve" smooth="yes"/>
      <point x="141" y="-8"/>
      <point x="146" y="-7"/>
      <point x="150" y="-6" type="curve"/>
      <point x="128" y="-46"/>
      <point x="82" y="-80"/>
      <point x="15" y="-111" type="curve"/>
    </contour>
  </outline>
</glyph>
<glyph name="hyphen" format="2">
  <advance width="421"/>
  <unicode hex="002D"/>
  <outline>
    <contour>
      <point x="73" y="341" type="line"/>
      <point x="56" y="247" type="line"/>
      <point x="346" y="247" type="line"/>
      <point x="363" y="341" type="line"/>
    </contour>
  </outline>
</glyph>
<glyph name="period" format="2">
  <advance width="262"/>
  <unicode hex="002E"/>
  <outline>
    <contour>
      <point x="207" y="66" type="curve" smooth="yes"/>
      <point x="207" y="110"/>
      <point x="176" y="141"/>
      <point x="127" y="141" type="curve" smooth="yes"/>
      <point x="79" y="141"/>
      <point x="47" y="110"/>
      <point x="47" y="66" type="curve" smooth="yes"/>
      <point x="47" y="22"/>
      <point x="79" y="-8"/>
      <point x="127" y="-8" type="curve" smooth="yes"/>
      <point x="176" y="-8"/>
      <point x="207" y="22"/>
    </contour>
  </outline>
</glyph>
<glyph name="zero" format="2">
  <advance width="560"/>
  <unicode hex="0030"/>
  <outline>
    <contour>
      <point x="25" y="251" type="curve" smooth="yes"/>
      <point x="25" y="92"/>
      <point x="112" y="-11"/>
      <point x="245" y="-11" type="curve" smooth="yes"/>
      <point x="434" y="-11"/>
      <point x="535" y="182"/>
      <point x="535" y="357" type="curve" smooth="yes"/>
      <point x="535" y="516"/>
      <point x="448" y="619"/>
      <point x="316" y="619" type="curve" smooth="yes"/>
      <point x="126" y="619"/>
      <point x="25" y="426"/>
    </contour>
    <contour>
      <point x="317" y="565" type="curve"/>
      <point x="378" y="565"/>
      <point x="404" y="512"/>
      <point x="404" y="422" type="curve" smooth="yes"/>
      <point x="404" y="385"/>
      <point x="399" y="337"/>
      <point x="389" y="284" type="curve" smooth="yes"/>
      <point x="365" y="143"/>
      <point x="319" y="43"/>
      <point x="243" y="43" type="curve"/>
      <point x="183" y="43"/>
      <point x="156" y="96"/>
      <point x="156" y="186" type="curve" smooth="yes"/>
      <point x="156" y="224"/>
      <point x="162" y="273"/>
      <point x="171" y="326" type="curve" smooth="yes"/>
      <point x="195" y="468"/>
      <point x="241" y="565"/>
    </contour>
  </outline>
</glyph>
<glyph name="one" format="2">
  <advance width="560"/>
  <unicode hex="0031"/>
  <outline>
    <contour>
      <point x="341" y="86" type="curve" smooth="yes"/>
      <point x="434" y="609" type="line"/>
      <point x="336" y="609" type="line"/>
      <point x="288" y="555"/>
      <point x="219" y="530"/>
      <point x="112" y="529" type="curve"/>
      <point x="98" y="449" type="line"/>
      <point x="170" y="450"/>
      <point x="239" y="476"/>
      <point x="279" y="518" type="curve"/>
      <point x="203" y="86" type="line" smooth="yes"/>
      <point x="197" y="54"/>
      <point x="153" y="47"/>
      <point x="87" y="47" type="curve" smooth="yes"/>
      <point x="46" y="47" type="line"/>
      <point x="38" y="0" type="line"/>
      <point x="471" y="0" type="line"/>
      <point x="480" y="47" type="line"/>
      <point x="449" y="47" type="line" smooth="yes"/>
      <point x="378" y="47"/>
      <point x="335" y="54"/>
    </contour>
  </outline>
</glyph>
<glyph name="two" format="2">
  <advance width="560"/>
  <unicode hex="0032"/>
  <outline>
    <contour>
      <point x="-16" y="0" type="line"/>
      <point x="466" y="0" type="line"/>
      <point x="504" y="215" type="line"/>
      <point x="450" y="215" type="line"/>
      <point x="426" y="145" type="line" smooth="yes"/>
      <point x="414" y="107"/>
      <point x="382" y="99"/>
      <point x="300" y="99" type="curve" smooth="yes"/>
      <point x="105" y="99" type="line"/>
      <point x="326" y="199"/>
      <point x="516" y="301"/>
      <point x="516" y="451" type="curve" smooth="yes"/>
      <point x="516" y="556"/>
      <point x="441" y="618"/>
      <point x="295" y="618" type="curve" smooth="yes"/>
      <point x="200" y="618"/>
      <point x="126" y="581"/>
      <point x="86" y="552" type="curve"/>
      <point x="65" y="430" type="line"/>
      <point x="178" y="430" type="line"/>
      <point x="196" y="543" type="line"/>
      <point x="220" y="555"/>
      <point x="249" y="564"/>
      <point x="283" y="564" type="curve" smooth="yes"/>
      <point x="345" y="564"/>
      <point x="381" y="527"/>
      <point x="381" y="462" type="curve" smooth="yes"/>
      <point x="381" y="326"/>
      <point x="239" y="219"/>
      <point x="1" y="97" type="curve"/>
    </contour>
  </outline>
</glyph>
<glyph name="three" format="2">
  <advance width="560"/>
  <unicode hex="0033"/>
  <outline>
    <contour>
      <point x="244" y="-90" type="curve" smooth="yes"/>
      <point x="395" y="-90"/>
      <point x="503" y="-13"/>
      <point x="503" y="114" type="curve" smooth="yes"/>
      <point x="503" y="194"/>
      <point x="454" y="262"/>
      <point x="326" y="287" type="curve"/>
      <point x="448" y="302"/>
      <point x="524" y="368"/>
      <point x="524" y="459" type="curve" smooth="yes"/>
      <point x="524" y="557"/>
      <point x="438" y="618"/>
      <point x="307" y="618" type="curve" smooth="yes"/>
      <point x="214" y="618"/>
      <point x="142" y="584"/>
      <point x="104" y="556" type="curve"/>
      <point x="86" y="435" type="line"/>
      <point x="198" y="435" type="line"/>
      <point x="213" y="542" type="line"/>
      <point x="238" y="555"/>
      <point x="266" y="563"/>
      <point x="297" y="563" type="curve" smooth="yes"/>
      <point x="363" y="563"/>
      <point x="395" y="525"/>
      <point x="395" y="464" type="curve" smooth="yes"/>
      <point x="395" y="379"/>
      <point x="350" y="310"/>
      <point x="231" y="310" type="curve" smooth="yes"/>
      <point x="174" y="310" type="line"/>
      <point x="164" y="257" type="line"/>
      <point x="215" y="257" type="line" smooth="yes"/>
      <point x="334" y="257"/>
      <point x="369" y="201"/>
      <point x="369" y="128" type="curve" smooth="yes"/>
      <point x="369" y="41"/>
      <point x="326" y="-33"/>
      <point x="231" y="-33" type="curve" smooth="yes"/>
      <point x="123" y="-33"/>
      <point x="64" y="39"/>
      <point x="43" y="117" type="curve"/>
      <point x="-11" y="86" type="line"/>
      <point x="19" y="-20"/>
      <point x="101" y="-90"/>
    </contour>
  </outline>
</glyph>
<glyph name="four" format="2">
  <advance width="560"/>
  <unicode hex="0034"/>
  <outline>
    <contour>
      <point x="-4" y="100" type="line"/>
      <point x="290" y="100" type="line"/>
      <point x="259" y="-77" type="line"/>
      <point x="392" y="-77" type="line"/>
      <point x="423" y="100" type="line"/>
      <point x="523" y="100" type="line"/>
      <point x="538" y="188" type="line"/>
      <point x="438" y="188" type="line"/>
      <point x="511" y="609" type="line"/>
      <point x="372" y="609" type="line"/>
      <point x="11" y="184" type="line"/>
    </contour>
    <contour>
      <point x="86" y="188" type="line"/>
      <point x="362" y="515" type="line"/>
      <point x="305" y="188" type="line"/>
    </contour>
  </outline>
</glyph>
<glyph name="five" format="2">
  <advance width="560"/>
  <unicode hex="0035"/>
  <outline>
    <contour>
      <point x="236" y="-90" type="curve" smooth="yes"/>
      <point x="406" y="-90"/>
      <point x="510" y="20"/>
      <point x="510" y="163" type="curve" smooth="yes"/>
      <point x="510" y="280"/>
      <point x="431" y="366"/>
      <point x="303" y="366" type="curve" smooth="yes"/>
      <point x="243" y="366"/>
      <point x="192" y="348"/>
      <point x="152" y="309" type="curve"/>
      <point x="186" y="505" type="line"/>
      <point x="492" y="505" type="line"/>
      <point x="525" y="609" type="line"/>
      <point x="145" y="609" type="line"/>
      <point x="77" y="228" type="line"/>
      <point x="128" y="228" type="line"/>
      <point x="159" y="277"/>
      <point x="202" y="308"/>
      <point x="264" y="308" type="curve" smooth="yes"/>
      <point x="339" y="308"/>
      <point x="375" y="253"/>
      <point x="375" y="168" type="curve" smooth="yes"/>
      <point x="375" y="58"/>
      <point x="323" y="-33"/>
      <point x="223" y="-33" type="curve" smooth="yes"/>
      <point x="120" y="-33"/>
      <point x="70" y="37"/>
      <point x="49" y="111" type="curve"/>
      <point x="-6" y="81" type="line"/>
      <point x="21" y="-15"/>
      <point x="95" y="-90"/>
    </contour>
  </outline>
</glyph>
<glyph name="six" format="2">
  <advance width="560"/>
  <unicode hex="0036"/>
  <outline>
    <contour>
      <point x="268" y="-10" type="curve" smooth="yes"/>
      <point x="413" y="-10"/>
      <point x="527" y="97"/>
      <point x="527" y="263" type="curve" smooth="yes"/>
      <point x="527" y="384"/>
      <point x="450" y="453"/>
      <point x="349" y="453" type="curve" smooth="yes"/>
      <point x="285" y="453"/>
      <point x="229" y="421"/>
      <point x="189" y="374" type="curve"/>
      <point x="237" y="546"/>
      <point x="359" y="660"/>
      <point x="533" y="689" type="curve"/>
      <point x="534" y="740" type="line"/>
      <point x="231" y="707"/>
      <point x="30" y="487"/>
      <point x="30" y="244" type="curve" smooth="yes"/>
      <point x="30" y="83"/>
      <point x="127" y="-10"/>
    </contour>
    <contour>
      <point x="163" y="197" type="curve" smooth="yes"/>
      <point x="163" y="234"/>
      <point x="167" y="275"/>
      <point x="175" y="314" type="curve"/>
      <point x="212" y="364"/>
      <point x="255" y="395"/>
      <point x="304" y="395" type="curve" smooth="yes"/>
      <point x="364" y="395"/>
      <point x="389" y="348"/>
      <point x="389" y="278" type="curve" smooth="yes"/>
      <point x="389" y="252"/>
      <point x="386" y="221"/>
      <point x="381" y="193" type="curve" smooth="yes"/>
      <point x="367" y="102"/>
      <point x="325" y="44"/>
      <point x="265" y="44" type="curve" smooth="yes"/>
      <point x="202" y="44"/>
      <point x="163" y="97"/>
    </contour>
  </outline>
</glyph>
<glyph name="seven" format="2">
  <advance width="560"/>
  <unicode hex="0037"/>
  <outline>
    <contour>
      <point x="270" y="508" type="curve" smooth="yes"/>
      <point x="499" y="508" type="line"/>
      <point x="399" y="417"/>
      <point x="190" y="191"/>
      <point x="121" y="-77" type="curve"/>
      <point x="255" y="-77" type="line"/>
      <point x="322" y="231"/>
      <point x="427" y="366"/>
      <point x="575" y="525" type="curve"/>
      <point x="589" y="609" type="line"/>
      <point x="110" y="609" type="line"/>
      <point x="69" y="374" type="line"/>
      <point x="119" y="374" type="line"/>
      <point x="146" y="458" type="line" smooth="yes"/>
      <point x="160" y="500"/>
      <point x="191" y="508"/>
    </contour>
  </outline>
</glyph>
<glyph name="eight" format="2">
  <advance width="560"/>
  <unicode hex="0038"/>
  <outline>
    <contour>
      <point x="10" y="195" type="curve" smooth="yes"/>
      <point x="10" y="71"/>
      <point x="118" y="-10"/>
      <point x="261" y="-10" type="curve" smooth="yes"/>
      <point x="423" y="-10"/>
      <point x="523" y="85"/>
      <point x="523" y="201" type="curve" smooth="yes"/>
      <point x="523" y="284"/>
      <point x="471" y="345"/>
      <point x="385" y="373" type="curve"/>
      <point x="486" y="394"/>
      <point x="542" y="461"/>
      <point x="542" y="546" type="curve" smooth="yes"/>
      <point x="542" y="648"/>
      <point x="454" y="720"/>
      <point x="327" y="720" type="curve" smooth="yes"/>
      <point x="191" y="720"/>
      <point x="99" y="643"/>
      <point x="99" y="540" type="curve" smooth="yes"/>
      <point x="99" y="470"/>
      <point x="141" y="414"/>
      <point x="207" y="386" type="curve"/>
      <point x="85" y="369"/>
      <point x="10" y="298"/>
    </contour>
    <contour>
      <point x="314" y="403" type="curve" smooth="yes"/>
      <point x="258" y="403"/>
      <point x="226" y="441"/>
      <point x="226" y="506" type="curve" smooth="yes"/>
      <point x="226" y="521"/>
      <point x="227" y="537"/>
      <point x="230" y="557" type="curve" smooth="yes"/>
      <point x="243" y="627"/>
      <point x="277" y="664"/>
      <point x="329" y="664" type="curve" smooth="yes"/>
      <point x="383" y="664"/>
      <point x="415" y="627"/>
      <point x="415" y="565" type="curve" smooth="yes"/>
      <point x="415" y="548"/>
      <point x="413" y="531"/>
      <point x="410" y="513" type="curve" smooth="yes"/>
      <point x="398" y="441"/>
      <point x="362" y="403"/>
    </contour>
    <contour>
      <point x="259" y="46" type="curve" smooth="yes"/>
      <point x="190" y="46"/>
      <point x="147" y="91"/>
      <point x="147" y="168" type="curve" smooth="yes"/>
      <point x="147" y="186"/>
      <point x="149" y="205"/>
      <point x="153" y="226" type="curve" smooth="yes"/>
      <point x="168" y="306"/>
      <point x="213" y="349"/>
      <point x="277" y="349" type="curve"/>
      <point x="348" y="349"/>
      <point x="384" y="303"/>
      <point x="384" y="237" type="curve" smooth="yes"/>
      <point x="384" y="215"/>
      <point x="382" y="194"/>
      <point x="377" y="171" type="curve" smooth="yes"/>
      <point x="360" y="91"/>
      <point x="320" y="46"/>
    </contour>
  </outline>
</glyph>
<glyph name="nine" format="2">
  <advance width="560"/>
  <unicode hex="0039"/>
  <outline>
    <contour>
      <point x="26" y="-45" type="curve"/>
      <point x="25" y="-96" type="line"/>
      <point x="353" y="-85"/>
      <point x="530" y="122"/>
      <point x="530" y="368" type="curve" smooth="yes"/>
      <point x="530" y="533"/>
      <point x="435" y="619"/>
      <point x="293" y="619" type="curve" smooth="yes"/>
      <point x="142" y="619"/>
      <point x="39" y="514"/>
      <point x="39" y="373" type="curve" smooth="yes"/>
      <point x="39" y="259"/>
      <point x="119" y="177"/>
      <point x="229" y="177" type="curve" smooth="yes"/>
      <point x="290" y="177"/>
      <point x="340" y="206"/>
      <point x="375" y="247" type="curve"/>
      <point x="334" y="72"/>
      <point x="223" y="-32"/>
    </contour>
    <contour>
      <point x="178" y="356" type="curve" smooth="yes"/>
      <point x="178" y="376"/>
      <point x="180" y="399"/>
      <point x="184" y="426" type="curve" smooth="yes"/>
      <point x="197" y="514"/>
      <point x="237" y="565"/>
      <point x="295" y="565" type="curve" smooth="yes"/>
      <point x="360" y="565"/>
      <point x="397" y="514"/>
      <point x="397" y="414" type="curve" smooth="yes"/>
      <point x="397" y="379"/>
      <point x="394" y="342"/>
      <point x="388" y="308" type="curve"/>
      <point x="355" y="262"/>
      <point x="316" y="235"/>
      <point x="268" y="235" type="curve" smooth="yes"/>
      <point x="209" y="235"/>
      <point x="178" y="278"/>
    </contour>
  </outline>
</glyph>
<glyph name="equal" format="2">
  <advance width="560"/>
  <unicode hex="003D"/>
  <outline>
    <contour>
      <point x="517" y="458" type="line"/>
      <point x="90" y="458" type="line"/>
      <point x="80" y="394" type="line"/>
      <point x="506" y="394" type="line"/>
    </contour>
    <contour>
      <point x="485" y="268" type="line"/>
      <point x="58" y="268" type="line"/>
      <point x="47" y="204" type="line"/>
      <point x="474" y="204" type="line"/>
    </contour>
  </outline>
</glyph>
<glyph name="question" format="2">
  <advance width="546"/>
  <unicode hex="003F"/>
  <outline>
    <contour>
      <point x="219" y="376" type="curve"/>
      <point x="193" y="227" type="line"/>
      <point x="266" y="227" type="line"/>
      <point x="285" y="340" type="line"/>
      <point x="437" y="371"/>
      <point x="547" y="434"/>
      <point x="547" y="566" type="curve" smooth="yes"/>
      <point x="547" y="677"/>
      <point x="455" y="739"/>
      <point x="317" y="739" type="curve" smooth="yes"/>
      <point x="215" y="739"/>
      <point x="139" y="701"/>
      <point x="104" y="676" type="curve"/>
      <point x="84" y="559" type="line"/>
      <point x="199" y="559" type="line"/>
      <point x="217" y="662" type="line"/>
      <point x="244" y="676"/>
      <point x="274" y="683"/>
      <point x="306" y="683" type="curve" smooth="yes"/>
      <point x="374" y="683"/>
      <point x="411" y="646"/>
      <point x="411" y="572" type="curve" smooth="yes"/>
      <point x="412" y="465"/>
      <point x="350" y="410"/>
    </contour>
    <component base="period" xOffset="87.18496240601503" yOffset="-0.3609022556390978"/>
  </outline>
</glyph>
<glyph name="A" format="2">
  <advance width="682"/>
  <unicode hex="0041"/>
  <outline>
    <contour>
      <point x="-50" y="0" type="line"/>
      <point x="158" y="0" type="line"/>
      <point x="166" y="47" type="line"/>
      <point x="148" y="47" type="line" smooth="yes"/>
      <point x="109" y="47"/>
      <point x="85" y="54"/>
      <point x="85" y="65" type="curve"/>
      <point x="171" y="240" type="line"/>
      <point x="399" y="240" type="line"/>
      <point x="426" y="57" type="line"/>
      <point x="425" y="50"/>
      <point x="387" y="47"/>
      <point x="356" y="47" type="curve" smooth="yes"/>
      <point x="340" y="47" type="line"/>
      <point x="332" y="0" type="line"/>
      <point x="617" y="0" type="line"/>
      <point x="625" y="47" type="line"/>
      <point x="620" y="47" type="line"/>
      <point x="592" y="47"/>
      <point x="573" y="50"/>
      <point x="569" y="78" type="curve" smooth="yes"/>
      <point x="474" y="710" type="line"/>
      <point x="339" y="710" type="line"/>
      <point x="34" y="92" type="line" smooth="yes"/>
      <point x="17" y="56"/>
      <point x="-6" y="47"/>
      <point x="-36" y="47" type="curve"/>
      <point x="-41" y="47" type="line"/>
    </contour>
    <contour>
      <point x="196" y="292" type="line"/>
      <point x="348" y="602" type="line"/>
      <point x="392" y="292" type="line"/>
    </contour>
  </outline>
</glyph>
<glyph name="B" format="2">
  <advance width="692"/>
  <unicode hex="0042"/>
  <outline>
    <contour>
      <point x="-18" y="0" type="line"/>
      <point x="338" y="0" type="line" smooth="yes"/>
      <point x="539" y="0"/>
      <point x="633" y="82"/>
      <point x="633" y="209" type="curve" smooth="yes"/>
      <point x="633" y="290"/>
      <point x="576" y="348"/>
      <point x="468" y="374" type="curve"/>
      <point x="591" y="389"/>
      <point x="649" y="458"/>
      <point x="649" y="545" type="curve" smooth="yes"/>
      <point x="649" y="638"/>
      <point x="571" y="710"/>
      <point x="404" y="710" type="curve" smooth="yes"/>
      <point x="108" y="710" type="line"/>
      <point x="99" y="663" type="line"/>
      <point x="108" y="663" type="line" smooth="yes"/>
      <point x="149" y="663"/>
      <point x="177" y="656"/>
      <point x="172" y="628" type="curve" smooth="yes"/>
      <point x="75" y="80" type="line" smooth="yes"/>
      <point x="70" y="53"/>
      <point x="37" y="47"/>
      <point x="-1" y="47" type="curve" smooth="yes"/>
      <point x="-10" y="47" type="line"/>
    </contour>
    <contour>
      <point x="276" y="397" type="line"/>
      <point x="322" y="656" type="line"/>
      <point x="389" y="656" type="line" smooth="yes"/>
      <point x="468" y="656"/>
      <point x="504" y="617"/>
      <point x="504" y="552" type="curve" smooth="yes"/>
      <point x="504" y="472"/>
      <point x="468" y="397"/>
      <point x="356" y="397" type="curve"/>
    </contour>
    <contour>
      <point x="216" y="54" type="line"/>
      <point x="267" y="345" type="line"/>
      <point x="351" y="345" type="line"/>
      <point x="447" y="345"/>
      <point x="485" y="294"/>
      <point x="485" y="221" type="curve" smooth="yes"/>
      <point x="485" y="132"/>
      <point x="444" y="54"/>
      <point x="320" y="54" type="curve" smooth="yes"/>
    </contour>
  </outline>
</glyph>
<glyph name="C" format="2">
  <advance width="704"/>
  <unicode hex="0043"/>
  <outline>
    <contour>
      <point x="441" y="662" type="curve"/>
      <point x="546" y="662"/>
      <point x="598" y="593"/>
      <point x="614" y="499" type="curve"/>
      <point x="675" y="499" type="line"/>
      <point x="712" y="710" type="line"/>
      <point x="655" y="710" type="line"/>
      <point x="627" y="613" type="line"/>
      <point x="591" y="681"/>
      <point x="525" y="720"/>
      <point x="420" y="720" type="curve"/>
      <point x="199" y="720"/>
      <point x="36" y="545"/>
      <point x="36" y="321" type="curve" smooth="yes"/>
      <point x="36" y="115"/>
      <point x="181" y="-10"/>
      <point x="359" y="-10" type="curve" smooth="yes"/>
      <point x="509" y="-10"/>
      <point x="611" y="82"/>
      <point x="660" y="224" type="curve"/>
      <point x="610" y="250" type="line"/>
      <point x="570" y="129"/>
      <point x="490" y="48"/>
      <point x="376" y="48" type="curve" smooth="yes"/>
      <point x="257" y="48"/>
      <point x="188" y="139"/>
      <point x="188" y="286" type="curve" smooth="yes"/>
      <point x="188" y="495"/>
      <point x="290" y="662"/>
    </contour>
  </outline>
</glyph>
<glyph name="D" format="2">
  <advance width="780"/>
  <unicode hex="0044"/>
  <outline>
    <contour>
      <point x="99" y="663" type="line"/>
      <point x="108" y="663" type="line" smooth="yes"/>
      <point x="148" y="663"/>
      <point x="177" y="656"/>
      <point x="172" y="627" type="curve" smooth="yes"/>
      <point x="76" y="82" type="line" smooth="yes"/>
      <point x="71" y="53"/>
      <point x="38" y="47"/>
      <point x="0" y="47" type="curve" smooth="yes"/>
      <point x="-10" y="47" type="line"/>
      <point x="-18" y="0" type="line"/>
      <point x="310" y="0" type="line" smooth="yes"/>
      <point x="603" y="0"/>
      <point x="751" y="181"/>
      <point x="751" y="399" type="curve" smooth="yes"/>
      <point x="751" y="591"/>
      <point x="608" y="710"/>
      <point x="380" y="710" type="curve" smooth="yes"/>
      <point x="107" y="710" type="line"/>
    </contour>
    <contour>
      <point x="380" y="654" type="line" smooth="yes"/>
      <point x="522" y="654"/>
      <point x="598" y="577"/>
      <point x="598" y="421" type="curve" smooth="yes"/>
      <point x="598" y="218"/>
      <point x="502" y="56"/>
      <point x="308" y="56" type="curve" smooth="yes"/>
      <point x="216" y="56" type="line"/>
      <point x="322" y="654" type="line"/>
    </contour>
  </outline>
</glyph>
<glyph name="E" format="2">
  <advance width="635"/>
  <unicode hex="0045"/>
  <outline>
    <contour>
      <point x="-18" y="0" type="line"/>
      <point x="533" y="0" type="line"/>
      <point x="571" y="216" type="line"/>
      <point x="514" y="216" type="line"/>
      <point x="477" y="103" type="line" smooth="yes"/>
      <point x="464" y="65"/>
      <point x="431" y="55"/>
      <point x="348" y="55" type="curve" smooth="yes"/>
      <point x="216" y="55" type="line"/>
      <point x="266" y="338" type="line"/>
      <point x="328" y="335"/>
      <point x="447" y="329"/>
      <point x="470" y="321" type="curve"/>
      <point x="485" y="404" type="line"/>
      <point x="458" y="398"/>
      <point x="338" y="392"/>
      <point x="275" y="389" type="curve"/>
      <point x="322" y="655" type="line"/>
      <point x="432" y="655" type="line" smooth="yes"/>
      <point x="507" y="655"/>
      <point x="538" y="645"/>
      <point x="538" y="607" type="curve" smooth="yes"/>
      <point x="537" y="519" type="line"/>
      <point x="592" y="519" type="line"/>
      <point x="624" y="710" type="line"/>
      <point x="107" y="710" type="line"/>
      <point x="98" y="663" type="line"/>
      <point x="107" y="663" type="line" smooth="yes"/>
      <point x="147" y="663"/>
      <point x="176" y="656"/>
      <point x="171" y="627" type="curve" smooth="yes"/>
      <point x="75" y="82" type="line" smooth="yes"/>
      <point x="70" y="53"/>
      <point x="37" y="47"/>
      <point x="-1" y="47" type="curve" smooth="yes"/>
      <point x="-10" y="47" type="line"/>
    </contour>
  </outline>
</glyph>
<glyph name="F" format="2">
  <advance width="609"/>
  <unicode hex="0046"/>
  <outline>
    <contour>
      <point x="322" y="655" type="line"/>
      <point x="436" y="655" type="line" smooth="yes"/>
      <point x="511" y="655"/>
      <point x="541" y="645"/>
      <point x="541" y="607" type="curve" smooth="yes"/>
      <point x="539" y="519" type="line"/>
      <point x="595" y="519" type="line"/>
      <point x="628" y="710" type="line"/>
      <point x="107" y="710" type="line"/>
      <point x="99" y="663" type="line"/>
      <point x="108" y="663" type="line" smooth="yes"/>
      <point x="148" y="663"/>
      <point x="177" y="656"/>
      <point x="172" y="627" type="curve" smooth="yes"/>
      <point x="75" y="82" type="line" smooth="yes"/>
      <point x="70" y="53"/>
      <point x="37" y="47"/>
      <point x="-1" y="47" type="curve" smooth="yes"/>
      <point x="-10" y="47" type="line"/>
      <point x="-18" y="0" type="line"/>
      <point x="303" y="0" type="line"/>
      <point x="312" y="47" type="line"/>
      <point x="294" y="47" type="line" smooth="yes"/>
      <point x="259" y="47"/>
      <point x="215" y="48"/>
      <point x="220" y="79" type="curve" smooth="yes"/>
      <point x="265" y="332" type="line"/>
      <point x="325" y="330"/>
      <point x="452" y="323"/>
      <point x="476" y="315" type="curve"/>
      <point x="491" y="399" type="line"/>
      <point x="463" y="392"/>
      <point x="335" y="385"/>
      <point x="274" y="383" type="curve"/>
    </contour>
  </outline>
</glyph>
<glyph name="G" format="2">
  <advance width="762"/>
  <unicode hex="0047"/>
  <outline>
    <contour>
      <point x="646" y="92" type="curve"/>
      <point x="677" y="269" type="line"/>
      <point x="682" y="298"/>
      <point x="710" y="305"/>
      <point x="740" y="305" type="curve" smooth="yes"/>
      <point x="746" y="305" type="line"/>
      <point x="754" y="349" type="line"/>
      <point x="475" y="349" type="line"/>
      <point x="467" y="305" type="line"/>
      <point x="478" y="305" type="line" smooth="yes"/>
      <point x="526" y="305"/>
      <point x="547" y="294"/>
      <point x="542" y="268" type="curve"/>
      <point x="511" y="90" type="line"/>
      <point x="494" y="77"/>
      <point x="447" y="47"/>
      <point x="377" y="47" type="curve" smooth="yes"/>
      <point x="258" y="47"/>
      <point x="189" y="136"/>
      <point x="189" y="287" type="curve" smooth="yes"/>
      <point x="189" y="490"/>
      <point x="283" y="662"/>
      <point x="444" y="662" type="curve" smooth="yes"/>
      <point x="551" y="662"/>
      <point x="606" y="590"/>
      <point x="624" y="499" type="curve"/>
      <point x="684" y="499" type="line"/>
      <point x="722" y="710" type="line"/>
      <point x="665" y="710" type="line"/>
      <point x="636" y="612" type="line"/>
      <point x="600" y="680"/>
      <point x="531" y="720"/>
      <point x="426" y="720" type="curve" smooth="yes"/>
      <point x="195" y="720"/>
      <point x="36" y="541"/>
      <point x="36" y="322" type="curve" smooth="yes"/>
      <point x="36" y="121"/>
      <point x="177" y="-10"/>
      <point x="374" y="-10" type="curve" smooth="yes"/>
      <point x="500" y="-10"/>
      <point x="596" y="45"/>
    </contour>
  </outline>
</glyph>
<glyph name="H" format="2">
  <advance width="808"/>
  <unicode hex="0048"/>
  <outline>
    <contour>
      <point x="-18" y="0" type="line"/>
      <point x="285" y="0" type="line"/>
      <point x="294" y="47" type="line"/>
      <point x="285" y="47" type="line" smooth="yes"/>
      <point x="254" y="47"/>
      <point x="215" y="49"/>
      <point x="216" y="56" type="curve" smooth="yes"/>
      <point x="266" y="338" type="line"/>
      <point x="548" y="338" type="line"/>
      <point x="498" y="56" type="line" smooth="yes"/>
      <point x="497" y="49"/>
      <point x="457" y="47"/>
      <point x="426" y="47" type="curve" smooth="yes"/>
      <point x="418" y="47" type="line"/>
      <point x="409" y="0" type="line"/>
      <point x="712" y="0" type="line"/>
      <point x="721" y="47" type="line"/>
      <point x="712" y="47" type="line" smooth="yes"/>
      <point x="672" y="47"/>
      <point x="643" y="53"/>
      <point x="648" y="82" type="curve" smooth="yes"/>
      <point x="744" y="628" type="line" smooth="yes"/>
      <point x="749" y="656"/>
      <point x="782" y="663"/>
      <point x="821" y="663" type="curve" smooth="yes"/>
      <point x="830" y="663" type="line"/>
      <point x="838" y="710" type="line"/>
      <point x="535" y="710" type="line"/>
      <point x="526" y="663" type="line"/>
      <point x="535" y="663" type="line" smooth="yes"/>
      <point x="566" y="663"/>
      <point x="605" y="661"/>
      <point x="604" y="654" type="curve" smooth="yes"/>
      <point x="558" y="393" type="line"/>
      <point x="276" y="393" type="line"/>
      <point x="322" y="654" type="line" smooth="yes"/>
      <point x="323" y="661"/>
      <point x="363" y="663"/>
      <point x="394" y="663" type="curve" smooth="yes"/>
      <point x="402" y="663" type="line"/>
      <point x="411" y="710" type="line"/>
      <point x="108" y="710" type="line"/>
      <point x="99" y="663" type="line"/>
      <point x="108" y="663" type="line" smooth="yes"/>
      <point x="146" y="663"/>
      <point x="177" y="657"/>
      <point x="172" y="630" type="curve" smooth="yes"/>
      <point x="75" y="80" type="line" smooth="yes"/>
      <point x="70" y="53"/>
      <point x="38" y="47"/>
      <point x="-1" y="47" type="curve" smooth="yes"/>
      <point x="-10" y="47" type="line"/>
    </contour>
  </outline>
</glyph>
<glyph name="I" format="2">
  <advance width="380"/>
  <unicode hex="0049"/>
  <outline>
    <contour>
      <point x="75" y="79" type="line" smooth="yes"/>
      <point x="70" y="53"/>
      <point x="37" y="47"/>
      <point x="-1" y="47" type="curve" smooth="yes"/>
      <point x="-10" y="47" type="line"/>
      <point x="-18" y="0" type="line"/>
      <point x="285" y="0" type="line"/>
      <point x="294" y="47" type="line"/>
      <point x="285" y="47" type="line" smooth="yes"/>
      <point x="245" y="47"/>
      <point x="215" y="53"/>
      <point x="221" y="83" type="curve" smooth="yes"/>
      <point x="317" y="629" type="line" smooth="yes"/>
      <point x="322" y="657"/>
      <point x="355" y="663"/>
      <point x="393" y="663" type="curve" smooth="yes"/>
      <point x="402" y="663" type="line"/>
      <point x="410" y="710" type="line"/>
      <point x="107" y="710" type="line"/>
      <point x="98" y="663" type="line"/>
      <point x="107" y="663" type="line" smooth="yes"/>
      <point x="145" y="663"/>
      <point x="176" y="657"/>
      <point x="172" y="629" type="curve" smooth="yes"/>
    </contour>
  </outline>
</glyph>
<glyph name="J" format="2">
  <advance width="589"/>
  <unicode hex="004A"/>
  <outline>
    <contour>
      <point x="382" y="628" type="curve" smooth="yes"/>
      <point x="311" y="228" type="line" smooth="yes"/>
      <point x="287" y="90"/>
      <point x="246" y="47"/>
      <point x="179" y="47" type="curve" smooth="yes"/>
      <point x="146" y="47"/>
      <point x="121" y="56"/>
      <point x="103" y="72" type="curve"/>
      <point x="122" y="182" type="line"/>
      <point x="4" y="182" type="line"/>
      <point x="-17" y="66" type="line"/>
      <point x="16" y="28"/>
      <point x="85" y="-10"/>
      <point x="185" y="-10" type="curve" smooth="yes"/>
      <point x="331" y="-10"/>
      <point x="427" y="58"/>
      <point x="457" y="232" type="curve" smooth="yes"/>
      <point x="527" y="628" type="line" smooth="yes"/>
      <point x="532" y="657"/>
      <point x="564" y="663"/>
      <point x="603" y="663" type="curve" smooth="yes"/>
      <point x="612" y="663" type="line"/>
      <point x="620" y="710" type="line"/>
      <point x="303" y="710" type="line"/>
      <point x="295" y="663" type="line"/>
      <point x="315" y="663" type="line" smooth="yes"/>
      <point x="357" y="663"/>
      <point x="387" y="657"/>
    </contour>
  </outline>
</glyph>
<glyph name="K" format="2">
  <advance width="761"/>
  <unicode hex="004B"/>
  <outline>
    <contour>
      <point x="-18" y="0" type="line"/>
      <point x="283" y="0" type="line"/>
      <point x="291" y="47" type="line"/>
      <point x="283" y="47" type="line" smooth="yes"/>
      <point x="253" y="47"/>
      <point x="215" y="50"/>
      <point x="216" y="57" type="curve" smooth="yes"/>
      <point x="322" y="653" type="line" smooth="yes"/>
      <point x="323" y="660"/>
      <point x="364" y="663"/>
      <point x="398" y="663" type="curve" smooth="yes"/>
      <point x="408" y="663" type="line"/>
      <point x="417" y="710" type="line"/>
      <point x="107" y="710" type="line"/>
      <point x="99" y="663" type="line"/>
      <point x="108" y="663" type="line" smooth="yes"/>
      <point x="146" y="663"/>
      <point x="177" y="657"/>
      <point x="172" y="630" type="curve" smooth="yes"/>
      <point x="75" y="80" type="line" smooth="yes"/>
      <point x="70" y="53"/>
      <point x="38" y="47"/>
      <point x="-1" y="47" type="curve" smooth="yes"/>
      <point x="-10" y="47" type="line"/>
    </contour>
    <contour>
      <point x="387" y="0" type="line"/>
      <point x="691" y="0" type="line"/>
      <point x="699" y="47" type="line"/>
      <point x="690" y="47" type="line" smooth="yes"/>
      <point x="652" y="47"/>
      <point x="639" y="53"/>
      <point x="625" y="75" type="curve" smooth="yes"/>
      <point x="426" y="409" type="line"/>
      <point x="658" y="629" type="line" smooth="yes"/>
      <point x="686" y="656"/>
      <point x="705" y="663"/>
      <point x="745" y="663" type="curve" smooth="yes"/>
      <point x="759" y="663" type="line"/>
      <point x="767" y="710" type="line"/>
      <point x="536" y="710" type="line"/>
      <point x="527" y="663" type="line"/>
      <point x="538" y="663" type="line" smooth="yes"/>
      <point x="570" y="663"/>
      <point x="607" y="660"/>
      <point x="606" y="652" type="curve"/>
      <point x="300" y="362" type="line"/>
      <point x="297" y="344" type="line"/>
      <point x="470" y="56" type="line"/>
      <point x="468" y="49"/>
      <point x="433" y="47"/>
      <point x="406" y="47" type="curve" smooth="yes"/>
      <point x="396" y="47" type="line"/>
    </contour>
  </outline>
</glyph>
<glyph name="L" format="2">
  <advance width="615"/>
  <unicode hex="004C"/>
  <outline>
    <contour>
      <point x="415" y="710" type="line"/>
      <point x="107" y="710" type="line"/>
      <point x="99" y="663" type="line"/>
      <point x="108" y="663" type="line" smooth="yes"/>
      <point x="146" y="663"/>
      <point x="177" y="656"/>
      <point x="172" y="630" type="curve" smooth="yes"/>
      <point x="75" y="79" type="line" smooth="yes"/>
      <point x="70" y="52"/>
      <point x="37" y="47"/>
      <point x="-1" y="47" type="curve" smooth="yes"/>
      <point x="-10" y="47" type="line"/>
      <point x="-18" y="0" type="line"/>
      <point x="522" y="0" type="line"/>
      <point x="562" y="228" type="line"/>
      <point x="504" y="228" type="line"/>
      <point x="466" y="103" type="line" smooth="yes"/>
      <point x="454" y="65"/>
      <point x="420" y="55"/>
      <point x="338" y="55" type="curve" smooth="yes"/>
      <point x="216" y="55" type="line"/>
      <point x="319" y="638" type="line" smooth="yes"/>
      <point x="322" y="659"/>
      <point x="357" y="663"/>
      <point x="395" y="663" type="curve" smooth="yes"/>
      <point x="407" y="663" type="line"/>
    </contour>
  </outline>
</glyph>
<glyph name="M" format="2">
  <advance width="943"/>
  <unicode hex="004D"/>
  <outline>
    <contour>
      <point x="-17" y="0" type="line"/>
      <point x="200" y="0" type="line"/>
      <point x="208" y="47" type="line"/>
      <point x="199" y="47" type="line" smooth="yes"/>
      <point x="167" y="47"/>
      <point x="133" y="50"/>
      <point x="135" y="63" type="curve" smooth="yes"/>
      <point x="239" y="657" type="line"/>
      <point x="331" y="-2" type="line"/>
      <point x="410" y="-2" type="line"/>
      <point x="738" y="656" type="line"/>
      <point x="633" y="57" type="line" smooth="yes"/>
      <point x="632" y="50"/>
      <point x="592" y="47"/>
      <point x="560" y="47" type="curve" smooth="yes"/>
      <point x="551" y="47" type="line"/>
      <point x="543" y="0" type="line"/>
      <point x="846" y="0" type="line"/>
      <point x="854" y="47" type="line"/>
      <point x="845" y="47" type="line" smooth="yes"/>
      <point x="807" y="47"/>
      <point x="776" y="54"/>
      <point x="781" y="81" type="curve" smooth="yes"/>
      <point x="877" y="628" type="line" smooth="yes"/>
      <point x="882" y="657"/>
      <point x="914" y="663"/>
      <point x="954" y="663" type="curve" smooth="yes"/>
      <point x="963" y="663" type="line"/>
      <point x="971" y="710" type="line"/>
      <point x="702" y="710" type="line"/>
      <point x="441" y="180" type="line"/>
      <point x="377" y="710" type="line"/>
      <point x="108" y="710" type="line"/>
      <point x="99" y="663" type="line"/>
      <point x="110" y="663" type="line" smooth="yes"/>
      <point x="148" y="663"/>
      <point x="177" y="657"/>
      <point x="173" y="628" type="curve" smooth="yes"/>
      <point x="78" y="90" type="line" smooth="yes"/>
      <point x="72" y="56"/>
      <point x="39" y="47"/>
      <point x="1" y="47" type="curve"/>
      <point x="-9" y="47" type="line"/>
    </contour>
  </outline>
</glyph>
<glyph name="N" format="2">
  <advance width="765"/>
  <unicode hex="004E"/>
  <outline>
    <contour>
      <point x="-18" y="0" type="line"/>
      <point x="213" y="0" type="line"/>
      <point x="222" y="47" type="line"/>
      <point x="204" y="47" type="line" smooth="yes"/>
      <point x="166" y="47"/>
      <point x="133" y="52"/>
      <point x="135" y="65" type="curve" smooth="yes"/>
      <point x="236" y="642" type="line"/>
      <point x="472" y="0" type="line"/>
      <point x="593" y="0" type="line"/>
      <point x="703" y="621" type="line" smooth="yes"/>
      <point x="709" y="653"/>
      <point x="741" y="663"/>
      <point x="778" y="663" type="curve" smooth="yes"/>
      <point x="789" y="663" type="line"/>
      <point x="798" y="710" type="line"/>
      <point x="566" y="710" type="line"/>
      <point x="558" y="663" type="line"/>
      <point x="576" y="663" type="line" smooth="yes"/>
      <point x="613" y="663"/>
      <point x="647" y="658"/>
      <point x="645" y="645" type="curve" smooth="yes"/>
      <point x="561" y="162" type="line"/>
      <point x="360" y="710" type="line"/>
      <point x="107" y="710" type="line"/>
      <point x="98" y="663" type="line"/>
      <point x="109" y="663" type="line" smooth="yes"/>
      <point x="146" y="663"/>
      <point x="177" y="657"/>
      <point x="172" y="628" type="curve" smooth="yes"/>
      <point x="77" y="92" type="line" smooth="yes"/>
      <point x="72" y="59"/>
      <point x="39" y="47"/>
      <point x="1" y="47" type="curve" smooth="yes"/>
      <point x="-10" y="47" type="line"/>
    </contour>
  </outline>
</glyph>
<glyph name="O" format="2">
  <advance width="786"/>
  <unicode hex="004F"/>
  <outline>
    <contour>
      <point x="362" y="-10" type="curve" smooth="yes"/>
      <point x="596" y="-10"/>
      <point x="755" y="169"/>
      <point x="755" y="392" type="curve" smooth="yes"/>
      <point x="755" y="583"/>
      <point x="620" y="720"/>
      <point x="430" y="720" type="curve" smooth="yes"/>
      <point x="196" y="720"/>
      <point x="36" y="541"/>
      <point x="36" y="318" type="curve" smooth="yes"/>
      <point x="36" y="127"/>
      <point x="172" y="-10"/>
    </contour>
    <contour>
      <point x="362" y="47" type="curve" smooth="yes"/>
      <point x="253" y="47"/>
      <point x="188" y="131"/>
      <point x="188" y="274" type="curve" smooth="yes"/>
      <point x="188" y="328"/>
      <point x="196" y="384"/>
      <point x="213" y="438" type="curve" smooth="yes"/>
      <point x="249" y="571"/>
      <point x="322" y="663"/>
      <point x="429" y="663" type="curve" smooth="yes"/>
      <point x="539" y="663"/>
      <point x="604" y="578"/>
      <point x="604" y="436" type="curve" smooth="yes"/>
      <point x="604" y="382"/>
      <point x="595" y="325"/>
      <point x="578" y="272" type="curve" smooth="yes"/>
      <point x="542" y="138"/>
      <point x="469" y="47"/>
    </contour>
  </outline>
</glyph>
<glyph name="P" format="2">
  <advance width="665"/>
  <unicode hex="0050"/>
  <outline>
    <contour>
      <point x="108" y="710" type="line"/>
      <point x="99" y="663" type="line"/>
      <point x="108" y="663" type="line" smooth="yes"/>
      <point x="147" y="663"/>
      <point x="177" y="656"/>
      <point x="172" y="629" type="curve" smooth="yes"/>
      <point x="75" y="79" type="line" smooth="yes"/>
      <point x="70" y="54"/>
      <point x="38" y="47"/>
      <point x="-1" y="47" type="curve" smooth="yes"/>
      <point x="-10" y="47" type="line"/>
      <point x="-18" y="0" type="line"/>
      <point x="299" y="0" type="line"/>
      <point x="307" y="47" type="line"/>
      <point x="286" y="47" type="line" smooth="yes"/>
      <point x="253" y="47"/>
      <point x="216" y="50"/>
      <point x="217" y="61" type="curve" smooth="yes"/>
      <point x="257" y="289" type="line"/>
      <point x="353" y="289" type="line" smooth="yes"/>
      <point x="554" y="289"/>
      <point x="661" y="386"/>
      <point x="661" y="521" type="curve" smooth="yes"/>
      <point x="661" y="636"/>
      <point x="572" y="710"/>
      <point x="406" y="710" type="curve" smooth="yes"/>
    </contour>
    <contour>
      <point x="267" y="343" type="line"/>
      <point x="322" y="654" type="line"/>
      <point x="388" y="654" type="line" smooth="yes"/>
      <point x="473" y="654"/>
      <point x="514" y="611"/>
      <point x="514" y="531" type="curve" smooth="yes"/>
      <point x="514" y="426"/>
      <point x="462" y="343"/>
      <point x="342" y="343" type="curve" smooth="yes"/>
    </contour>
  </outline>
</glyph>
<glyph name="Q" format="2">
  <advance width="788"/>
  <unicode hex="0051"/>
  <outline>
    <contour>
      <point x="519" y="-199" type="curve" smooth="yes"/>
      <point x="563" y="-199"/>
      <point x="607" y="-193"/>
      <point x="644" y="-182" type="curve"/>
      <point x="666" y="-69" type="line"/>
      <point x="625" y="-82"/>
      <point x="575" y="-95"/>
      <point x="520" y="-95" type="curve" smooth="yes"/>
      <point x="437" y="-95"/>
      <point x="382" y="-70"/>
      <point x="381" y="-10" type="curve"/>
      <point x="604" y="0"/>
      <point x="755" y="175"/>
      <point x="755" y="392" type="curve" smooth="yes"/>
      <point x="755" y="583"/>
      <point x="620" y="720"/>
      <point x="430" y="720" type="curve" smooth="yes"/>
      <point x="196" y="720"/>
      <point x="36" y="541"/>
      <point x="36" y="318" type="curve" smooth="yes"/>
      <point x="36" y="141"/>
      <point x="152" y="11"/>
      <point x="321" y="-8" type="curve"/>
      <point x="319" y="-18"/>
      <point x="317" y="-29"/>
      <point x="317" y="-39" type="curve" smooth="yes"/>
      <point x="317" y="-142"/>
      <point x="394" y="-199"/>
    </contour>
    <contour>
      <point x="362" y="47" type="curve" smooth="yes"/>
      <point x="253" y="47"/>
      <point x="188" y="131"/>
      <point x="188" y="274" type="curve" smooth="yes"/>
      <point x="188" y="328"/>
      <point x="196" y="384"/>
      <point x="213" y="438" type="curve" smooth="yes"/>
      <point x="249" y="571"/>
      <point x="322" y="663"/>
      <point x="429" y="663" type="curve" smooth="yes"/>
      <point x="539" y="663"/>
      <point x="604" y="578"/>
      <point x="604" y="436" type="curve" smooth="yes"/>
      <point x="604" y="382"/>
      <point x="595" y="325"/>
      <point x="578" y="272" type="curve" smooth="yes"/>
      <point x="542" y="138"/>
      <point x="469" y="47"/>
    </contour>
  </outline>
</glyph>
<glyph name="R" format="2">
  <advance width="711"/>
  <unicode hex="0052"/>
  <outline>
    <contour>
      <point x="-18" y="0" type="line"/>
      <point x="283" y="0" type="line"/>
      <point x="291" y="47" type="line"/>
      <point x="281" y="47" type="line" smooth="yes"/>
      <point x="250" y="47"/>
      <point x="215" y="50"/>
      <point x="216" y="57" type="curve" smooth="yes"/>
      <point x="260" y="304" type="line"/>
      <point x="364" y="304" type="line"/>
      <point x="460" y="0" type="line"/>
      <point x="644" y="0" type="line"/>
      <point x="652" y="47" type="line"/>
      <point x="646" y="47" type="line" smooth="yes"/>
      <point x="615" y="47"/>
      <point x="599" y="50"/>
      <point x="589" y="78" type="curve" smooth="yes"/>
      <point x="500" y="322" type="line"/>
      <point x="601" y="354"/>
      <point x="660" y="424"/>
      <point x="660" y="522" type="curve" smooth="yes"/>
      <point x="660" y="635"/>
      <point x="566" y="710"/>
      <point x="398" y="710" type="curve" smooth="yes"/>
      <point x="107" y="710" type="line"/>
      <point x="99" y="663" type="line"/>
      <point x="108" y="663" type="line" smooth="yes"/>
      <point x="149" y="663"/>
      <point x="177" y="656"/>
      <point x="172" y="628" type="curve" smooth="yes"/>
      <point x="75" y="79" type="line" smooth="yes"/>
      <point x="70" y="52"/>
      <point x="37" y="47"/>
      <point x="-1" y="47" type="curve" smooth="yes"/>
      <point x="-10" y="47" type="line"/>
    </contour>
    <contour>
      <point x="387" y="655" type="line" smooth="yes"/>
      <point x="472" y="655"/>
      <point x="510" y="612"/>
      <point x="510" y="535" type="curve" smooth="yes"/>
      <point x="510" y="436"/>
      <point x="463" y="357"/>
      <point x="347" y="357" type="curve" smooth="yes"/>
      <point x="269" y="357" type="line"/>
      <point x="322" y="655" type="line"/>
    </contour>
  </outline>
</glyph>
<glyph name="S" format="2">
  <advance width="606"/>
  <unicode hex="0053"/>
  <outline>
    <contour>
      <point x="305" y="-10" type="curve" smooth="yes"/>
      <point x="450" y="-10"/>
      <point x="555" y="72"/>
      <point x="555" y="209" type="curve" smooth="yes"/>
      <point x="555" y="322"/>
      <point x="463" y="377"/>
      <point x="366" y="422" type="curve" smooth="yes"/>
      <point x="281" y="462"/>
      <point x="210" y="487"/>
      <point x="210" y="559" type="curve" smooth="yes"/>
      <point x="210" y="619"/>
      <point x="251" y="663"/>
      <point x="330" y="663" type="curve" smooth="yes"/>
      <point x="418" y="663"/>
      <point x="481" y="606"/>
      <point x="497" y="523" type="curve"/>
      <point x="553" y="523" type="line"/>
      <point x="585" y="708" type="line"/>
      <point x="530" y="708" type="line"/>
      <point x="507" y="629" type="line"/>
      <point x="469" y="688"/>
      <point x="404" y="720"/>
      <point x="324" y="720" type="curve" smooth="yes"/>
      <point x="179" y="720"/>
      <point x="90" y="640"/>
      <point x="90" y="521" type="curve" smooth="yes"/>
      <point x="90" y="408"/>
      <point x="170" y="355"/>
      <point x="266" y="310" type="curve" smooth="yes"/>
      <point x="353" y="268"/>
      <point x="430" y="237"/>
      <point x="430" y="162" type="curve" smooth="yes"/>
      <point x="430" y="93"/>
      <point x="385" y="47"/>
      <point x="298" y="47" type="curve" smooth="yes"/>
      <point x="192" y="47"/>
      <point x="112" y="107"/>
      <point x="84" y="221" type="curve"/>
      <point x="24" y="221" type="line"/>
      <point x="-15" y="0" type="line"/>
      <point x="43" y="0" type="line"/>
      <point x="73" y="110" type="line"/>
      <point x="119" y="31"/>
      <point x="202" y="-10"/>
    </contour>
  </outline>
</glyph>
<glyph name="T" format="2">
  <advance width="676"/>
  <unicode hex="0054"/>
  <outline>
    <contour>
      <point x="223" y="82" type="line" smooth="yes"/>
      <point x="218" y="53"/>
      <point x="185" y="47"/>
      <point x="147" y="47" type="curve" smooth="yes"/>
      <point x="131" y="47" type="line"/>
      <point x="123" y="0" type="line"/>
      <point x="439" y="0" type="line"/>
      <point x="447" y="47" type="line"/>
      <point x="432" y="47" type="line" smooth="yes"/>
      <point x="393" y="47"/>
      <point x="363" y="53"/>
      <point x="368" y="82" type="curve" smooth="yes"/>
      <point x="469" y="654" type="line"/>
      <point x="527" y="654" type="line" smooth="yes"/>
      <point x="603" y="654"/>
      <point x="629" y="645"/>
      <point x="628" y="607" type="curve" smooth="yes"/>
      <point x="622" y="504" type="line"/>
      <point x="677" y="504" type="line"/>
      <point x="713" y="710" type="line"/>
      <point x="100" y="710" type="line"/>
      <point x="64" y="504" type="line"/>
      <point x="119" y="504" type="line"/>
      <point x="152" y="606" type="line" smooth="yes"/>
      <point x="165" y="644"/>
      <point x="192" y="654"/>
      <point x="266" y="654" type="curve" smooth="yes"/>
      <point x="324" y="654" type="line"/>
    </contour>
  </outline>
</glyph>
<glyph name="U" format="2">
  <advance width="760"/>
  <unicode hex="0055"/>
  <outline>
    <contour>
      <point x="248" y="308" type="curve" smooth="yes"/>
      <point x="309" y="653" type="line" smooth="yes"/>
      <point x="310" y="660"/>
      <point x="350" y="663"/>
      <point x="381" y="663" type="curve" smooth="yes"/>
      <point x="390" y="663" type="line"/>
      <point x="398" y="710" type="line"/>
      <point x="93" y="710" type="line"/>
      <point x="86" y="663" type="line"/>
      <point x="95" y="663" type="line" smooth="yes"/>
      <point x="132" y="663"/>
      <point x="163" y="657"/>
      <point x="159" y="632" type="curve" smooth="yes"/>
      <point x="105" y="324" type="line" smooth="yes"/>
      <point x="97" y="278"/>
      <point x="93" y="244"/>
      <point x="93" y="209" type="curve" smooth="yes"/>
      <point x="93" y="58"/>
      <point x="200" y="-10"/>
      <point x="352" y="-10" type="curve" smooth="yes"/>
      <point x="501" y="-10"/>
      <point x="605" y="71"/>
      <point x="639" y="263" type="curve" smooth="yes"/>
      <point x="702" y="616" type="line" smooth="yes"/>
      <point x="708" y="652"/>
      <point x="741" y="663"/>
      <point x="778" y="663" type="curve" smooth="yes"/>
      <point x="789" y="663" type="line"/>
      <point x="797" y="710" type="line"/>
      <point x="572" y="710" type="line"/>
      <point x="564" y="663" type="line"/>
      <point x="577" y="663" type="line" smooth="yes"/>
      <point x="614" y="663"/>
      <point x="646" y="657"/>
      <point x="643" y="641" type="curve" smooth="yes"/>
      <point x="579" y="273" type="line" smooth="yes"/>
      <point x="553" y="125"/>
      <point x="490" y="64"/>
      <point x="387" y="64" type="curve" smooth="yes"/>
      <point x="293" y="64"/>
      <point x="237" y="109"/>
      <point x="237" y="203" type="curve" smooth="yes"/>
      <point x="237" y="231"/>
      <point x="241" y="265"/>
    </contour>
  </outline>
</glyph>
<glyph name="V" format="2">
  <advance width="668"/>
  <unicode hex="0056"/>
  <outline>
    <contour>
      <point x="648" y="616" type="line" smooth="yes"/>
      <point x="667" y="654"/>
      <point x="688" y="663"/>
      <point x="719" y="663" type="curve"/>
      <point x="725" y="663" type="line"/>
      <point x="734" y="710" type="line"/>
      <point x="528" y="710" type="line"/>
      <point x="520" y="663" type="line"/>
      <point x="538" y="663" type="line" smooth="yes"/>
      <point x="575" y="663"/>
      <point x="601" y="655"/>
      <point x="599" y="644" type="curve"/>
      <point x="334" y="112" type="line"/>
      <point x="264" y="653" type="line"/>
      <point x="264" y="660"/>
      <point x="303" y="663"/>
      <point x="333" y="663" type="curve" smooth="yes"/>
      <point x="349" y="663" type="line"/>
      <point x="358" y="710" type="line"/>
      <point x="73" y="710" type="line"/>
      <point x="64" y="663" type="line"/>
      <point x="69" y="663" type="line"/>
      <point x="97" y="663"/>
      <point x="117" y="659"/>
      <point x="120" y="632" type="curve" smooth="yes"/>
      <point x="209" y="0" type="line"/>
      <point x="339" y="0" type="line"/>
    </contour>
  </outline>
</glyph>
<glyph name="W" format="2">
  <advance width="1004"/>
  <unicode hex="0057"/>
  <outline>
    <contour>
      <point x="75" y="710" type="line"/>
      <point x="66" y="663" type="line"/>
      <point x="72" y="663" type="line" smooth="yes"/>
      <point x="102" y="663"/>
      <point x="122" y="659"/>
      <point x="124" y="631" type="curve" smooth="yes"/>
      <point x="163" y="0" type="line"/>
      <point x="292" y="0" type="line"/>
      <point x="544" y="555" type="line"/>
      <point x="588" y="0" type="line"/>
      <point x="716" y="0" type="line"/>
      <point x="975" y="610" type="line" smooth="yes"/>
      <point x="992" y="650"/>
      <point x="1016" y="663"/>
      <point x="1047" y="663" type="curve" smooth="yes"/>
      <point x="1053" y="663" type="line"/>
      <point x="1062" y="710" type="line"/>
      <point x="854" y="710" type="line"/>
      <point x="845" y="663" type="line"/>
      <point x="866" y="663" type="line" smooth="yes"/>
      <point x="903" y="663"/>
      <point x="929" y="655"/>
      <point x="927" y="644" type="curve"/>
      <point x="711" y="134" type="line"/>
      <point x="665" y="710" type="line"/>
      <point x="554" y="710" type="line"/>
      <point x="291" y="128" type="line"/>
      <point x="265" y="653" type="line"/>
      <point x="267" y="660"/>
      <point x="304" y="663"/>
      <point x="337" y="663" type="curve" smooth="yes"/>
      <point x="354" y="663" type="line"/>
      <point x="363" y="710" type="line"/>
    </contour>
  </outline>
</glyph>
<glyph name="X" format="2">
  <advance width="710"/>
  <unicode hex="0058"/>
  <outline>
    <contour>
      <point x="-43" y="0" type="line"/>
      <point x="175" y="0" type="line"/>
      <point x="184" y="47" type="line"/>
      <point x="169" y="47" type="line" smooth="yes"/>
      <point x="133" y="47"/>
      <point x="104" y="54"/>
      <point x="106" y="65" type="curve"/>
      <point x="308" y="308" type="line"/>
      <point x="428" y="57" type="line"/>
      <point x="427" y="50"/>
      <point x="389" y="47"/>
      <point x="361" y="47" type="curve" smooth="yes"/>
      <point x="345" y="47" type="line"/>
      <point x="336" y="0" type="line"/>
      <point x="636" y="0" type="line"/>
      <point x="644" y="47" type="line"/>
      <point x="635" y="47" type="line" smooth="yes"/>
      <point x="605" y="47"/>
      <point x="588" y="52"/>
      <point x="575" y="78" type="curve" smooth="yes"/>
      <point x="428" y="379" type="line"/>
      <point x="631" y="618" type="line" smooth="yes"/>
      <point x="660" y="653"/>
      <point x="682" y="663"/>
      <point x="715" y="663" type="curve" smooth="yes"/>
      <point x="722" y="663" type="line"/>
      <point x="731" y="710" type="line"/>
      <point x="514" y="710" type="line"/>
      <point x="505" y="663" type="line"/>
      <point x="520" y="663" type="line" smooth="yes"/>
      <point x="558" y="663"/>
      <point x="585" y="655"/>
      <point x="583" y="644" type="curve"/>
      <point x="403" y="428" type="line"/>
      <point x="297" y="653" type="line"/>
      <point x="298" y="660"/>
      <point x="335" y="663"/>
      <point x="364" y="663" type="curve" smooth="yes"/>
      <point x="380" y="663" type="line"/>
      <point x="388" y="710" type="line"/>
      <point x="94" y="710" type="line"/>
      <point x="85" y="663" type="line"/>
      <point x="90" y="663" type="line" smooth="yes"/>
      <point x="121" y="663"/>
      <point x="137" y="660"/>
      <point x="150" y="632" type="curve" smooth="yes"/>
      <point x="282" y="357" type="line"/>
      <point x="63" y="97" type="line" smooth="yes"/>
      <point x="32" y="60"/>
      <point x="9" y="47"/>
      <point x="-25" y="47" type="curve" smooth="yes"/>
      <point x="-34" y="47" type="line"/>
    </contour>
  </outline>
</glyph>
<glyph name="Y" format="2">
  <advance width="660"/>
  <unicode hex="0059"/>
  <outline>
    <contour>
      <point x="442" y="47" type="line"/>
      <point x="426" y="47" type="line" smooth="yes"/>
      <point x="387" y="47"/>
      <point x="357" y="53"/>
      <point x="362" y="82" type="curve" smooth="yes"/>
      <point x="402" y="306" type="line"/>
      <point x="623" y="616" type="line" smooth="yes"/>
      <point x="650" y="653"/>
      <point x="673" y="663"/>
      <point x="701" y="663" type="curve" smooth="yes"/>
      <point x="707" y="663" type="line"/>
      <point x="716" y="710" type="line"/>
      <point x="506" y="710" type="line"/>
      <point x="497" y="663" type="line"/>
      <point x="516" y="663" type="line" smooth="yes"/>
      <point x="553" y="663"/>
      <point x="579" y="655"/>
      <point x="577" y="644" type="curve"/>
      <point x="381" y="367" type="line"/>
      <point x="274" y="652" type="line"/>
      <point x="275" y="660"/>
      <point x="310" y="663"/>
      <point x="341" y="663" type="curve" smooth="yes"/>
      <point x="357" y="663" type="line"/>
      <point x="366" y="710" type="line"/>
      <point x="80" y="710" type="line"/>
      <point x="71" y="663" type="line"/>
      <point x="77" y="663" type="line" smooth="yes"/>
      <point x="102" y="663"/>
      <point x="121" y="662"/>
      <point x="131" y="637" type="curve" smooth="yes"/>
      <point x="258" y="311" type="line"/>
      <point x="217" y="82" type="line" smooth="yes"/>
      <point x="212" y="53"/>
      <point x="180" y="47"/>
      <point x="141" y="47" type="curve" smooth="yes"/>
      <point x="126" y="47" type="line"/>
      <point x="117" y="0" type="line"/>
      <point x="433" y="0" type="line"/>
    </contour>
  </outline>
</glyph>
<glyph name="Z" format="2">
  <advance width="622"/>
  <unicode hex="005A"/>
  <outline>
    <contour>
      <point x="566" y="219" type="line"/>
      <point x="510" y="219" type="line"/>
      <point x="474" y="104" type="line" smooth="yes"/>
      <point x="462" y="65"/>
      <point x="428" y="56"/>
      <point x="345" y="56" type="curve" smooth="yes"/>
      <point x="133" y="56" type="line"/>
      <point x="624" y="642" type="line"/>
      <point x="637" y="710" type="line"/>
      <point x="117" y="710" type="line"/>
      <point x="82" y="514" type="line"/>
      <point x="138" y="514" type="line"/>
      <point x="169" y="607" type="line" smooth="yes"/>
      <point x="182" y="645"/>
      <point x="216" y="654"/>
      <point x="291" y="654" type="curve" smooth="yes"/>
      <point x="476" y="654" type="line"/>
      <point x="-12" y="72" type="line"/>
      <point x="-25" y="0" type="line"/>
      <point x="528" y="0" type="line"/>
    </contour>
  </outline>
</glyph>
<glyph name="bracketleft" format="2">
  <advance width="314"/>
  <unicode hex="005B"/>
  <outline>
    <contour>
      <point x="247" y="-79" type="line"/>
      <point x="114" y="-79" type="line"/>
      <point x="252" y="699" type="line"/>
      <point x="381" y="699" type="line"/>
      <point x="390" y="750" type="line"/>
      <point x="157" y="750" type="line"/>
      <point x="1" y="-130" type="line"/>
      <point x="237" y="-130" type="line"/>
    </contour>
  </outline>
</glyph>
<glyph name="a" format="2">
  <advance width="615"/>
  <unicode hex="0061"/>
  <outline>
    <contour>
      <point x="206" y="-11" type="curve" smooth="yes"/>
      <point x="277" y="-11"/>
      <point x="323" y="27"/>
      <point x="366" y="93" type="curve"/>
      <point x="366" y="26"/>
      <point x="409" y="-9"/>
      <point x="475" y="-9" type="curve" smooth="yes"/>
      <point x="520" y="-9"/>
      <point x="559" y="8"/>
      <point x="579" y="23" type="curve"/>
      <point x="589" y="71" type="line"/>
      <point x="578" y="66"/>
      <point x="553" y="52"/>
      <point x="527" y="52" type="curve" smooth="yes"/>
      <point x="506" y="52"/>
      <point x="496" y="61"/>
      <point x="496" y="81" type="curve" smooth="yes"/>
      <point x="496" y="95"/>
      <point x="500" y="121"/>
      <point x="507" y="156" type="curve" smooth="yes"/>
      <point x="571" y="519" type="line"/>
      <point x="490" y="519" type="line"/>
      <point x="448" y="472" type="line"/>
      <point x="420" y="504"/>
      <point x="380" y="525"/>
      <point x="325" y="525" type="curve" smooth="yes"/>
      <point x="145" y="525"/>
      <point x="34" y="358"/>
      <point x="34" y="188" type="curve" smooth="yes"/>
      <point x="34" y="60"/>
      <point x="104" y="-11"/>
    </contour>
    <contour>
      <point x="177" y="175" type="curve" smooth="yes"/>
      <point x="177" y="307"/>
      <point x="240" y="469"/>
      <point x="340" y="469" type="curve" smooth="yes"/>
      <point x="373" y="469"/>
      <point x="399" y="456"/>
      <point x="418" y="432" type="curve"/>
      <point x="373" y="174" type="line"/>
      <point x="334" y="101"/>
      <point x="296" y="56"/>
      <point x="247" y="56" type="curve" smooth="yes"/>
      <point x="202" y="56"/>
      <point x="177" y="93"/>
    </contour>
  </outline>
</glyph>
<glyph name="b" format="2">
  <advance width="618"/>
  <unicode hex="0062"/>
  <outline>
    <contour>
      <point x="278" y="-11" type="curve" smooth="yes"/>
      <point x="472" y="-11"/>
      <point x="586" y="154"/>
      <point x="586" y="322" type="curve" smooth="yes"/>
      <point x="586" y="451"/>
      <point x="516" y="525"/>
      <point x="417" y="525" type="curve" smooth="yes"/>
      <point x="343" y="525"/>
      <point x="290" y="489"/>
      <point x="243" y="422" type="curve"/>
      <point x="298" y="742" type="line"/>
      <point x="88" y="742" type="line"/>
      <point x="80" y="697" type="line"/>
      <point x="91" y="695" type="line" smooth="yes"/>
      <point x="131" y="687"/>
      <point x="150" y="681"/>
      <point x="146" y="656" type="curve" smooth="yes"/>
      <point x="43" y="65" type="line"/>
      <point x="90" y="24"/>
      <point x="171" y="-11"/>
    </contour>
    <contour>
      <point x="366" y="455" type="curve" smooth="yes"/>
      <point x="418" y="455"/>
      <point x="443" y="412"/>
      <point x="443" y="333" type="curve" smooth="yes"/>
      <point x="443" y="200"/>
      <point x="379" y="41"/>
      <point x="272" y="41" type="curve" smooth="yes"/>
      <point x="235" y="41"/>
      <point x="205" y="52"/>
      <point x="183" y="73" type="curve"/>
      <point x="229" y="340" type="line"/>
      <point x="273" y="415"/>
      <point x="314" y="455"/>
    </contour>
  </outline>
</glyph>
<glyph name="c" format="2">
  <advance width="533"/>
  <unicode hex="0063"/>
  <anchor x="274.09774436090225" y="552.4887218045113" name="top"/>
  <anchor x="284.09774436090225" y="0.0" name="bottom"/>
  <outline>
    <contour>
      <point x="340" y="525" type="curve" smooth="yes"/>
      <point x="158" y="525"/>
      <point x="34" y="395"/>
      <point x="34" y="225" type="curve" smooth="yes"/>
      <point x="34" y="72"/>
      <point x="141" y="-11"/>
      <point x="274" y="-11" type="curve" smooth="yes"/>
      <point x="377" y="-11"/>
      <point x="451" y="37"/>
      <point x="494" y="136" type="curve"/>
      <point x="450" y="166" type="line"/>
      <point x="427" y="113"/>
      <point x="381" y="49"/>
      <point x="301" y="49" type="curve" smooth="yes"/>
      <point x="223" y="49"/>
      <point x="178" y="111"/>
      <point x="178" y="214" type="curve" smooth="yes"/>
      <point x="178" y="349"/>
      <point x="243" y="470"/>
      <point x="344" y="470" type="curve" smooth="yes"/>
      <point x="371" y="470"/>
      <point x="394" y="463"/>
      <point x="411" y="448" type="curve"/>
      <point x="393" y="347" type="line"/>
      <point x="504" y="347" type="line"/>
      <point x="525" y="462" type="line"/>
      <point x="502" y="485"/>
      <point x="442" y="525"/>
    </contour>
  </outline>
</glyph>
<glyph name="d" format="2">
  <advance width="634"/>
  <unicode hex="0064"/>
  <outline>
    <contour>
      <point x="212" y="-11" type="curve" smooth="yes"/>
      <point x="290" y="-11"/>
      <point x="340" y="32"/>
      <point x="387" y="105" type="curve"/>
      <point x="387" y="101"/>
      <point x="387" y="97"/>
      <point x="387" y="94" type="curve" smooth="yes"/>
      <point x="387" y="25"/>
      <point x="429" y="-9"/>
      <point x="493" y="-9" type="curve" smooth="yes"/>
      <point x="540" y="-9"/>
      <point x="579" y="8"/>
      <point x="599" y="23" type="curve"/>
      <point x="609" y="71" type="line"/>
      <point x="597" y="66"/>
      <point x="572" y="52"/>
      <point x="547" y="52" type="curve" smooth="yes"/>
      <point x="526" y="52"/>
      <point x="515" y="61"/>
      <point x="515" y="81" type="curve" smooth="yes"/>
      <point x="515" y="95"/>
      <point x="519" y="118"/>
      <point x="525" y="150" type="curve"/>
      <point x="629" y="742" type="line"/>
      <point x="419" y="742" type="line"/>
      <point x="411" y="697" type="line"/>
      <point x="423" y="694" type="line" smooth="yes"/>
      <point x="462" y="687"/>
      <point x="481" y="681"/>
      <point x="476" y="656" type="curve" smooth="yes"/>
      <point x="447" y="490" type="line"/>
      <point x="417" y="512"/>
      <point x="379" y="525"/>
      <point x="332" y="525" type="curve" smooth="yes"/>
      <point x="147" y="525"/>
      <point x="34" y="359"/>
      <point x="34" y="190" type="curve" smooth="yes"/>
      <point x="34" y="65"/>
      <point x="104" y="-11"/>
    </contour>
    <contour>
      <point x="177" y="176" type="curve" smooth="yes"/>
      <point x="177" y="308"/>
      <point x="241" y="469"/>
      <point x="347" y="469" type="curve" smooth="yes"/>
      <point x="384" y="469"/>
      <point x="414" y="456"/>
      <point x="437" y="432" type="curve"/>
      <point x="393" y="182" type="line"/>
      <point x="350" y="104"/>
      <point x="309" y="56"/>
      <point x="255" y="56" type="curve" smooth="yes"/>
      <point x="203" y="56"/>
      <point x="177" y="97"/>
    </contour>
  </outline>
</glyph>
<glyph name="e" format="2">
  <advance width="521"/>
  <unicode hex="0065"/>
  <outline>
    <contour>
      <point x="267" y="-11" type="curve" smooth="yes"/>
      <point x="368" y="-11"/>
      <point x="442" y="42"/>
      <point x="481" y="128" type="curve"/>
      <point x="437" y="159" type="line"/>
      <point x="407" y="96"/>
      <point x="361" y="49"/>
      <point x="292" y="49" type="curve" smooth="yes"/>
      <point x="219" y="49"/>
      <point x="176" y="103"/>
      <point x="175" y="211" type="curve"/>
      <point x="380" y="239"/>
      <point x="502" y="294"/>
      <point x="502" y="400" type="curve" smooth="yes"/>
      <point x="502" y="470"/>
      <point x="442" y="525"/>
      <point x="333" y="525" type="curve" smooth="yes"/>
      <point x="152" y="525"/>
      <point x="34" y="377"/>
      <point x="34" y="221" type="curve" smooth="yes"/>
      <point x="34" y="76"/>
      <point x="127" y="-11"/>
    </contour>
    <contour>
      <point x="326" y="471" type="curve" smooth="yes"/>
      <point x="366" y="471"/>
      <point x="385" y="444"/>
      <point x="385" y="407" type="curve" smooth="yes"/>
      <point x="385" y="324"/>
      <point x="329" y="281"/>
      <point x="177" y="255" type="curve"/>
      <point x="188" y="381"/>
      <point x="248" y="471"/>
    </contour>
  </outline>
</glyph>
<glyph name="f" format="2">
  <advance width="397"/>
  <unicode hex="0066"/>
  <outline>
    <contour>
      <point x="51" y="515" type="line"/>
      <point x="42" y="464" type="line"/>
      <point x="132" y="464" type="line"/>
      <point x="35" y="-223" type="line"/>
      <point x="144" y="-223" type="line"/>
      <point x="268" y="464" type="line"/>
      <point x="407" y="464" type="line"/>
      <point x="416" y="515" type="line"/>
      <point x="277" y="515" type="line"/>
      <point x="289" y="579" type="line" smooth="yes"/>
      <point x="304" y="667"/>
      <point x="336" y="701"/>
      <point x="396" y="701" type="curve" smooth="yes"/>
      <point x="430" y="701"/>
      <point x="459" y="689"/>
      <point x="479" y="678" type="curve"/>
      <point x="489" y="735" type="line"/>
      <point x="466" y="747"/>
      <point x="431" y="754"/>
      <point x="385" y="754" type="curve" smooth="yes"/>
      <point x="266" y="754"/>
      <point x="165" y="698"/>
      <point x="145" y="556" type="curve" smooth="yes"/>
      <point x="139" y="515" type="line"/>
    </contour>
  </outline>
</glyph>
<glyph name="g" format="2">
  <advance width="610"/>
  <unicode hex="0067"/>
  <outline>
    <contour>
      <point x="209" y="-233" type="curve" smooth="yes"/>
      <point x="367" y="-233"/>
      <point x="470" y="-152"/>
      <point x="497" y="3" type="curve" smooth="yes"/>
      <point x="589" y="519" type="line"/>
      <point x="507" y="519" type="line"/>
      <point x="467" y="470" type="line"/>
      <point x="436" y="503"/>
      <point x="392" y="525"/>
      <point x="332" y="525" type="curve" smooth="yes"/>
      <point x="147" y="525"/>
      <point x="34" y="359"/>
      <point x="34" y="192" type="curve" smooth="yes"/>
      <point x="34" y="68"/>
      <point x="104" y="-7"/>
      <point x="214" y="-7" type="curve" smooth="yes"/>
      <point x="284" y="-7"/>
      <point x="332" y="28"/>
      <point x="375" y="88" type="curve"/>
      <point x="360" y="6" type="line" smooth="yes"/>
      <point x="337" y="-125"/>
      <point x="288" y="-180"/>
      <point x="202" y="-180" type="curve" smooth="yes"/>
      <point x="156" y="-180"/>
      <point x="122" y="-169"/>
      <point x="98" y="-150" type="curve"/>
      <point x="115" y="-59" type="line"/>
      <point x="0" y="-59" type="line"/>
      <point x="-16" y="-147" type="line"/>
      <point x="18" y="-193"/>
      <point x="97" y="-233"/>
    </contour>
    <contour>
      <point x="347" y="469" type="curve" smooth="yes"/>
      <point x="385" y="469"/>
      <point x="414" y="455"/>
      <point x="436" y="428" type="curve"/>
      <point x="392" y="185" type="line"/>
      <point x="349" y="107"/>
      <point x="309" y="61"/>
      <point x="255" y="61" type="curve" smooth="yes"/>
      <point x="202" y="61"/>
      <point x="177" y="102"/>
      <point x="177" y="180" type="curve" smooth="yes"/>
      <point x="177" y="311"/>
      <point x="241" y="469"/>
    </contour>
  </outline>
</glyph>
<glyph name="h" format="2">
  <advance width="627"/>
  <unicode hex="0068"/>
  <outline>
    <contour>
      <point x="177" y="0" type="line"/>
      <point x="235" y="330" type="line"/>
      <point x="282" y="410"/>
      <point x="326" y="452"/>
      <point x="374" y="452" type="curve" smooth="yes"/>
      <point x="410" y="452"/>
      <point x="423" y="430"/>
      <point x="423" y="399" type="curve" smooth="yes"/>
      <point x="423" y="381"/>
      <point x="419" y="359"/>
      <point x="414" y="331" type="curve" smooth="yes"/>
      <point x="385" y="180" type="line" smooth="yes"/>
      <point x="376" y="136"/>
      <point x="373" y="112"/>
      <point x="373" y="91" type="curve" smooth="yes"/>
      <point x="373" y="23"/>
      <point x="418" y="-9"/>
      <point x="484" y="-9" type="curve" smooth="yes"/>
      <point x="529" y="-9"/>
      <point x="569" y="7"/>
      <point x="590" y="23" type="curve"/>
      <point x="600" y="71" type="line"/>
      <point x="589" y="66"/>
      <point x="563" y="52"/>
      <point x="538" y="52" type="curve" smooth="yes"/>
      <point x="517" y="52"/>
      <point x="507" y="61"/>
      <point x="507" y="81" type="curve" smooth="yes"/>
      <point x="507" y="94"/>
      <point x="512" y="117"/>
      <point x="518" y="150" type="curve" smooth="yes"/>
      <point x="551" y="321" type="line" smooth="yes"/>
      <point x="558" y="357"/>
      <point x="561" y="383"/>
      <point x="561" y="406" type="curve" smooth="yes"/>
      <point x="561" y="477"/>
      <point x="515" y="525"/>
      <point x="432" y="525" type="curve" smooth="yes"/>
      <point x="357" y="525"/>
      <point x="301" y="484"/>
      <point x="250" y="413" type="curve"/>
      <point x="308" y="742" type="line"/>
      <point x="98" y="742" type="line"/>
      <point x="90" y="697" type="line"/>
      <point x="101" y="695" type="line" smooth="yes"/>
      <point x="141" y="687"/>
      <point x="159" y="681"/>
      <point x="155" y="656" type="curve" smooth="yes"/>
      <point x="39" y="0" type="line"/>
    </contour>
  </outline>
</glyph>
<glyph name="i" format="2">
  <advance width="317"/>
  <unicode hex="0069"/>
  <outline>
    <contour>
      <point x="217" y="610" type="curve" smooth="yes"/>
      <point x="267" y="610"/>
      <point x="300" y="638"/>
      <point x="300" y="684" type="curve" smooth="yes"/>
      <point x="300" y="727"/>
      <point x="268" y="754"/>
      <point x="219" y="754" type="curve" smooth="yes"/>
      <point x="170" y="754"/>
      <point x="136" y="727"/>
      <point x="136" y="682" type="curve" smooth="yes"/>
      <point x="136" y="637"/>
      <point x="169" y="610"/>
    </contour>
    <contour>
      <point x="206" y="149" type="curve" smooth="yes"/>
      <point x="271" y="515" type="line"/>
      <point x="61" y="515" type="line"/>
      <point x="53" y="469" type="line"/>
      <point x="65" y="467" type="line" smooth="yes"/>
      <point x="104" y="461"/>
      <point x="123" y="453"/>
      <point x="119" y="427" type="curve" smooth="yes"/>
      <point x="74" y="180" type="line" smooth="yes"/>
      <point x="66" y="136"/>
      <point x="62" y="114"/>
      <point x="62" y="92" type="curve" smooth="yes"/>
      <point x="62" y="24"/>
      <point x="109" y="-9"/>
      <point x="175" y="-9" type="curve" smooth="yes"/>
      <point x="221" y="-9"/>
      <point x="261" y="8"/>
      <point x="281" y="23" type="curve"/>
      <point x="290" y="71" type="line"/>
      <point x="279" y="66"/>
      <point x="253" y="52"/>
      <point x="228" y="52" type="curve" smooth="yes"/>
      <point x="207" y="52"/>
      <point x="197" y="61"/>
      <point x="197" y="81" type="curve" smooth="yes"/>
      <point x="197" y="96"/>
      <point x="201" y="118"/>
    </contour>
  </outline>
</glyph>
<glyph name="j" format="2">
  <advance width="316"/>
  <unicode hex="006A"/>
  <anchor x="163.8045112781955" y="551.0" name="top"/>
  <outline>
    <contour>
      <point x="226" y="610" type="curve" smooth="yes"/>
      <point x="275" y="610"/>
      <point x="308" y="638"/>
      <point x="308" y="684" type="curve" smooth="yes"/>
      <point x="308" y="727"/>
      <point x="276" y="754"/>
      <point x="227" y="754" type="curve" smooth="yes"/>
      <point x="178" y="754"/>
      <point x="145" y="727"/>
      <point x="145" y="682" type="curve" smooth="yes"/>
      <point x="145" y="637"/>
      <point x="177" y="610"/>
    </contour>
    <contour>
      <point x="45" y="-38" type="line" smooth="yes"/>
      <point x="26" y="-142"/>
      <point x="-3" y="-177"/>
      <point x="-61" y="-177" type="curve" smooth="yes"/>
      <point x="-93" y="-177"/>
      <point x="-121" y="-167"/>
      <point x="-135" y="-161" type="curve"/>
      <point x="-147" y="-217" type="line"/>
      <point x="-125" y="-226"/>
      <point x="-85" y="-236"/>
      <point x="-38" y="-236" type="curve" smooth="yes"/>
      <point x="80" y="-236"/>
      <point x="157" y="-186"/>
      <point x="184" y="-29" type="curve" smooth="yes"/>
      <point x="279" y="515" type="line"/>
      <point x="68" y="515" type="line"/>
      <point x="60" y="469" type="line"/>
      <point x="73" y="467" type="line" smooth="yes"/>
      <point x="113" y="461"/>
      <point x="132" y="453"/>
      <point x="128" y="428" type="curve" smooth="yes"/>
    </contour>
  </outline>
</glyph>
<glyph name="k" format="2">
  <advance width="585"/>
  <unicode hex="006B"/>
  <anchor x="271.609022556391" y="0.0" name="bottom"/>
  <outline>
    <contour>
      <point x="177" y="0" type="line"/>
      <point x="308" y="742" type="line"/>
      <point x="98" y="742" type="line"/>
      <point x="90" y="697" type="line"/>
      <point x="101" y="695" type="line" smooth="yes"/>
      <point x="141" y="687"/>
      <point x="159" y="681"/>
      <point x="155" y="656" type="curve" smooth="yes"/>
      <point x="39" y="0" type="line"/>
    </contour>
    <contour>
      <point x="550" y="21" type="curve"/>
      <point x="559" y="70" type="line"/>
      <point x="548" y="64"/>
      <point x="527" y="55"/>
      <point x="508" y="55" type="curve" smooth="yes"/>
      <point x="477" y="55"/>
      <point x="459" y="82"/>
      <point x="431" y="159" type="curve" smooth="yes"/>
      <point x="373" y="327" type="line"/>
      <point x="455" y="387"/>
      <point x="574" y="481"/>
      <point x="596" y="506" type="curve"/>
      <point x="596" y="515" type="line"/>
      <point x="484" y="515" type="line"/>
      <point x="460" y="475"/>
      <point x="309" y="325"/>
      <point x="257" y="288" type="curve"/>
      <point x="255" y="280" type="line"/>
      <point x="304" y="132" type="line" smooth="yes"/>
      <point x="336" y="32"/>
      <point x="375" y="-9"/>
      <point x="449" y="-9" type="curve" smooth="yes"/>
      <point x="491" y="-9"/>
      <point x="531" y="6"/>
    </contour>
  </outline>
</glyph>
<glyph name="l" format="2">
  <advance width="306"/>
  <unicode hex="006C"/>
  <outline>
    <contour>
      <point x="300" y="742" type="line"/>
      <point x="92" y="742" type="line"/>
      <point x="84" y="697" type="line"/>
      <point x="95" y="695" type="line" smooth="yes"/>
      <point x="134" y="687"/>
      <point x="153" y="681"/>
      <point x="149" y="656" type="curve" smooth="yes"/>
      <point x="64" y="180" type="line" smooth="yes"/>
      <point x="57" y="137"/>
      <point x="52" y="114"/>
      <point x="52" y="92" type="curve" smooth="yes"/>
      <point x="52" y="24"/>
      <point x="99" y="-9"/>
      <point x="164" y="-9" type="curve" smooth="yes"/>
      <point x="211" y="-9"/>
      <point x="250" y="8"/>
      <point x="270" y="23" type="curve"/>
      <point x="280" y="71" type="line"/>
      <point x="268" y="66"/>
      <point x="243" y="52"/>
      <point x="218" y="52" type="curve" smooth="yes"/>
      <point x="196" y="52"/>
      <point x="186" y="61"/>
      <point x="186" y="81" type="curve" smooth="yes"/>
      <point x="186" y="96"/>
      <point x="190" y="118"/>
      <point x="195" y="149" type="curve" smooth="yes"/>
    </contour>
  </outline>
</glyph>
<glyph name="m" format="2">
  <advance width="907"/>
  <unicode hex="006D"/>
  <outline>
    <contour>
      <point x="181" y="0" type="line"/>
      <point x="240" y="332" type="line"/>
      <point x="283" y="410"/>
      <point x="323" y="450"/>
      <point x="367" y="450" type="curve" smooth="yes"/>
      <point x="398" y="450"/>
      <point x="407" y="429"/>
      <point x="407" y="399" type="curve" smooth="yes"/>
      <point x="407" y="382"/>
      <point x="404" y="359"/>
      <point x="399" y="331" type="curve" smooth="yes"/>
      <point x="340" y="0" type="line"/>
      <point x="477" y="0" type="line"/>
      <point x="536" y="322" type="line" smooth="yes"/>
      <point x="537" y="327"/>
      <point x="538" y="332"/>
      <point x="538" y="337" type="curve"/>
      <point x="581" y="412"/>
      <point x="620" y="450"/>
      <point x="663" y="450" type="curve" smooth="yes"/>
      <point x="694" y="450"/>
      <point x="703" y="429"/>
      <point x="703" y="398" type="curve" smooth="yes"/>
      <point x="703" y="381"/>
      <point x="700" y="359"/>
      <point x="694" y="331" type="curve" smooth="yes"/>
      <point x="665" y="180" type="line" smooth="yes"/>
      <point x="657" y="136"/>
      <point x="654" y="112"/>
      <point x="654" y="91" type="curve" smooth="yes"/>
      <point x="654" y="23"/>
      <point x="699" y="-9"/>
      <point x="764" y="-9" type="curve" smooth="yes"/>
      <point x="810" y="-9"/>
      <point x="849" y="7"/>
      <point x="871" y="23" type="curve"/>
      <point x="880" y="71" type="line"/>
      <point x="869" y="66"/>
      <point x="844" y="52"/>
      <point x="819" y="52" type="curve" smooth="yes"/>
      <point x="798" y="52"/>
      <point x="788" y="61"/>
      <point x="788" y="81" type="curve" smooth="yes"/>
      <point x="788" y="94"/>
      <point x="792" y="117"/>
      <point x="798" y="150" type="curve" smooth="yes"/>
      <point x="832" y="321" type="line" smooth="yes"/>
      <point x="838" y="357"/>
      <point x="842" y="383"/>
      <point x="842" y="406" type="curve" smooth="yes"/>
      <point x="842" y="477"/>
      <point x="798" y="525"/>
      <point x="721" y="525" type="curve" smooth="yes"/>
      <point x="648" y="525"/>
      <point x="595" y="482"/>
      <point x="545" y="408" type="curve"/>
      <point x="545" y="477"/>
      <point x="502" y="525"/>
      <point x="425" y="525" type="curve" smooth="yes"/>
      <point x="349" y="525"/>
      <point x="295" y="478"/>
      <point x="243" y="398" type="curve"/>
      <point x="263" y="515" type="line"/>
      <point x="62" y="515" type="line"/>
      <point x="54" y="469" type="line"/>
      <point x="66" y="467" type="line" smooth="yes"/>
      <point x="105" y="461"/>
      <point x="124" y="453"/>
      <point x="119" y="428" type="curve" smooth="yes"/>
      <point x="43" y="0" type="line"/>
    </contour>
  </outline>
</glyph>
<glyph name="n" format="2">
  <advance width="631"/>
  <unicode hex="006E"/>
  <outline>
    <contour>
      <point x="181" y="0" type="line"/>
      <point x="240" y="331" type="line"/>
      <point x="286" y="411"/>
      <point x="330" y="452"/>
      <point x="378" y="452" type="curve" smooth="yes"/>
      <point x="414" y="452"/>
      <point x="427" y="430"/>
      <point x="427" y="399" type="curve" smooth="yes"/>
      <point x="427" y="381"/>
      <point x="423" y="359"/>
      <point x="418" y="331" type="curve" smooth="yes"/>
      <point x="389" y="180" type="line" smooth="yes"/>
      <point x="380" y="136"/>
      <point x="377" y="112"/>
      <point x="377" y="91" type="curve" smooth="yes"/>
      <point x="377" y="23"/>
      <point x="422" y="-9"/>
      <point x="488" y="-9" type="curve" smooth="yes"/>
      <point x="533" y="-9"/>
      <point x="573" y="7"/>
      <point x="594" y="23" type="curve"/>
      <point x="604" y="71" type="line"/>
      <point x="593" y="66"/>
      <point x="567" y="52"/>
      <point x="542" y="52" type="curve" smooth="yes"/>
      <point x="521" y="52"/>
      <point x="511" y="61"/>
      <point x="511" y="81" type="curve" smooth="yes"/>
      <point x="511" y="94"/>
      <point x="516" y="117"/>
      <point x="522" y="150" type="curve" smooth="yes"/>
      <point x="555" y="321" type="line" smooth="yes"/>
      <point x="562" y="357"/>
      <point x="565" y="383"/>
      <point x="565" y="406" type="curve" smooth="yes"/>
      <point x="565" y="477"/>
      <point x="519" y="525"/>
      <point x="436" y="525" type="curve" smooth="yes"/>
      <point x="356" y="525"/>
      <point x="297" y="479"/>
      <point x="243" y="398" type="curve"/>
      <point x="263" y="515" type="line"/>
      <point x="62" y="515" type="line"/>
      <point x="54" y="469" type="line"/>
      <point x="66" y="467" type="line" smooth="yes"/>
      <point x="105" y="461"/>
      <point x="124" y="453"/>
      <point x="119" y="428" type="curve" smooth="yes"/>
      <point x="43" y="0" type="line"/>
    </contour>
  </outline>
</glyph>
<glyph name="o" format="2">
  <advance width="604"/>
  <unicode hex="006F"/>
  <outline>
    <contour>
      <point x="281" y="-11" type="curve" smooth="yes"/>
      <point x="454" y="-11"/>
      <point x="572" y="117"/>
      <point x="572" y="282" type="curve" smooth="yes"/>
      <point x="572" y="429"/>
      <point x="472" y="525"/>
      <point x="325" y="525" type="curve" smooth="yes"/>
      <point x="153" y="525"/>
      <point x="34" y="395"/>
      <point x="34" y="231" type="curve" smooth="yes"/>
      <point x="34" y="84"/>
      <point x="135" y="-11"/>
    </contour>
    <contour>
      <point x="328" y="470" type="curve" smooth="yes"/>
      <point x="392" y="470"/>
      <point x="429" y="419"/>
      <point x="429" y="324" type="curve" smooth="yes"/>
      <point x="429" y="211"/>
      <point x="383" y="43"/>
      <point x="278" y="43" type="curve" smooth="yes"/>
      <point x="215" y="43"/>
      <point x="177" y="95"/>
      <point x="177" y="188" type="curve" smooth="yes"/>
      <point x="177" y="302"/>
      <point x="224" y="470"/>
    </contour>
  </outline>
</glyph>
<glyph name="p" format="2">
  <advance width="630"/>
  <unicode hex="0070"/>
  <outline>
    <contour>
      <point x="-65" y="-223" type="line"/>
      <point x="226" y="-223" type="line"/>
      <point x="234" y="-179" type="line"/>
      <point x="219" y="-179" type="line" smooth="yes"/>
      <point x="199" y="-179"/>
      <point x="151" y="-176"/>
      <point x="151" y="-168" type="curve" smooth="yes"/>
      <point x="184" y="19" type="line"/>
      <point x="214" y="0"/>
      <point x="251" y="-11"/>
      <point x="294" y="-11" type="curve" smooth="yes"/>
      <point x="484" y="-11"/>
      <point x="598" y="154"/>
      <point x="598" y="322" type="curve" smooth="yes"/>
      <point x="598" y="451"/>
      <point x="528" y="525"/>
      <point x="429" y="525" type="curve" smooth="yes"/>
      <point x="350" y="525"/>
      <point x="295" y="483"/>
      <point x="245" y="407" type="curve"/>
      <point x="263" y="515" type="line"/>
      <point x="62" y="515" type="line"/>
      <point x="54" y="469" type="line"/>
      <point x="66" y="467" type="line" smooth="yes"/>
      <point x="105" y="461"/>
      <point x="124" y="453"/>
      <point x="119" y="428" type="curve" smooth="yes"/>
      <point x="17" y="-147" type="line" smooth="yes"/>
      <point x="13" y="-172"/>
      <point x="-16" y="-179"/>
      <point x="-56" y="-179" type="curve" smooth="yes"/>
      <point x="-57" y="-179" type="line"/>
    </contour>
    <contour>
      <point x="378" y="455" type="curve" smooth="yes"/>
      <point x="429" y="455"/>
      <point x="455" y="412"/>
      <point x="455" y="333" type="curve" smooth="yes"/>
      <point x="455" y="200"/>
      <point x="392" y="41"/>
      <point x="285" y="41" type="curve" smooth="yes"/>
      <point x="248" y="41"/>
      <point x="217" y="54"/>
      <point x="195" y="79" type="curve"/>
      <point x="241" y="340" type="line"/>
      <point x="285" y="415"/>
      <point x="326" y="455"/>
    </contour>
  </outline>
</glyph>
<glyph name="q" format="2">
  <advance width="610"/>
  <unicode hex="0071"/>
  <outline>
    <contour>
      <point x="535" y="-179" type="line"/>
      <point x="533" y="-179" type="line"/>
      <point x="491" y="-179"/>
      <point x="467" y="-172"/>
      <point x="472" y="-145" type="curve" smooth="yes"/>
      <point x="589" y="519" type="line"/>
      <point x="508" y="519" type="line"/>
      <point x="467" y="470" type="line"/>
      <point x="436" y="503"/>
      <point x="392" y="525"/>
      <point x="332" y="525" type="curve" smooth="yes"/>
      <point x="147" y="525"/>
      <point x="34" y="359"/>
      <point x="34" y="190" type="curve" smooth="yes"/>
      <point x="34" y="65"/>
      <point x="105" y="-11"/>
      <point x="210" y="-11" type="curve" smooth="yes"/>
      <point x="281" y="-11"/>
      <point x="332" y="26"/>
      <point x="376" y="88" type="curve"/>
      <point x="330" y="-168" type="line"/>
      <point x="329" y="-175"/>
      <point x="286" y="-179"/>
      <point x="257" y="-179" type="curve" smooth="yes"/>
      <point x="241" y="-179" type="line"/>
      <point x="233" y="-223" type="line"/>
      <point x="527" y="-223" type="line"/>
    </contour>
    <contour>
      <point x="347" y="469" type="curve" smooth="yes"/>
      <point x="385" y="469"/>
      <point x="415" y="454"/>
      <point x="436" y="427" type="curve"/>
      <point x="391" y="176" type="line"/>
      <point x="350" y="102"/>
      <point x="309" y="56"/>
      <point x="255" y="56" type="curve" smooth="yes"/>
      <point x="203" y="56"/>
      <point x="177" y="98"/>
      <point x="177" y="176" type="curve" smooth="yes"/>
      <point x="177" y="308"/>
      <point x="241" y="469"/>
    </contour>
  </outline>
</glyph>
<glyph name="r" format="2">
  <advance width="425"/>
  <unicode hex="0072"/>
  <outline>
    <contour>
      <point x="181" y="0" type="line"/>
      <point x="237" y="315" type="line"/>
      <point x="276" y="385"/>
      <point x="312" y="404"/>
      <point x="356" y="404" type="curve" smooth="yes"/>
      <point x="381" y="404"/>
      <point x="399" y="399"/>
      <point x="414" y="394" type="curve"/>
      <point x="435" y="516" type="line"/>
      <point x="428" y="519"/>
      <point x="415" y="523"/>
      <point x="396" y="523" type="curve" smooth="yes"/>
      <point x="332" y="523"/>
      <point x="283" y="470"/>
      <point x="240" y="377" type="curve"/>
      <point x="263" y="515" type="line"/>
      <point x="62" y="515" type="line"/>
      <point x="54" y="469" type="line"/>
      <point x="66" y="467" type="line" smooth="yes"/>
      <point x="105" y="461"/>
      <point x="124" y="453"/>
      <point x="119" y="428" type="curve" smooth="yes"/>
      <point x="43" y="0" type="line"/>
    </contour>
  </outline>
</glyph>
<glyph name="s" format="2">
  <advance width="495"/>
  <unicode hex="0073"/>
  <outline>
    <contour>
      <point x="229" y="-11" type="curve" smooth="yes"/>
      <point x="365" y="-11"/>
      <point x="449" y="52"/>
      <point x="449" y="158" type="curve" smooth="yes"/>
      <point x="449" y="243"/>
      <point x="376" y="280"/>
      <point x="305" y="311" type="curve" smooth="yes"/>
      <point x="244" y="338"/>
      <point x="193" y="358"/>
      <point x="193" y="404" type="curve" smooth="yes"/>
      <point x="193" y="444"/>
      <point x="224" y="472"/>
      <point x="285" y="472" type="curve" smooth="yes"/>
      <point x="315" y="472"/>
      <point x="341" y="466"/>
      <point x="361" y="453" type="curve"/>
      <point x="347" y="373" type="line"/>
      <point x="451" y="373" type="line"/>
      <point x="467" y="464" type="line"/>
      <point x="437" y="497"/>
      <point x="369" y="524"/>
      <point x="286" y="524" type="curve" smooth="yes"/>
      <point x="160" y="524"/>
      <point x="75" y="467"/>
      <point x="75" y="368" type="curve" smooth="yes"/>
      <point x="75" y="278"/>
      <point x="150" y="241"/>
      <point x="218" y="212" type="curve" smooth="yes"/>
      <point x="280" y="185"/>
      <point x="329" y="164"/>
      <point x="329" y="120" type="curve" smooth="yes"/>
      <point x="329" y="74"/>
      <point x="293" y="41"/>
      <point x="229" y="41" type="curve" smooth="yes"/>
      <point x="183" y="41"/>
      <point x="145" y="53"/>
      <point x="119" y="72" type="curve"/>
      <point x="136" y="162" type="line"/>
      <point x="28" y="162" type="line"/>
      <point x="9" y="62" type="line"/>
      <point x="45" y="27"/>
      <point x="125" y="-11"/>
    </contour>
  </outline>
</glyph>
<glyph name="t" format="2">
  <advance width="384"/>
  <unicode hex="0074"/>
  <outline>
    <contour>
      <point x="216" y="-11" type="curve" smooth="yes"/>
      <point x="264" y="-11"/>
      <point x="301" y="4"/>
      <point x="322" y="16" type="curve"/>
      <point x="331" y="70" type="line"/>
      <point x="318" y="63"/>
      <point x="288" y="49"/>
      <point x="257" y="49" type="curve" smooth="yes"/>
      <point x="221" y="49"/>
      <point x="201" y="65"/>
      <point x="201" y="107" type="curve" smooth="yes"/>
      <point x="201" y="130"/>
      <point x="206" y="166"/>
      <point x="213" y="204" type="curve" smooth="yes"/>
      <point x="258" y="464" type="line"/>
      <point x="378" y="464" type="line"/>
      <point x="387" y="515" type="line"/>
      <point x="267" y="515" type="line"/>
      <point x="290" y="651" type="line"/>
      <point x="173" y="651" type="line"/>
      <point x="154" y="569" type="line" smooth="yes"/>
      <point x="141" y="522"/>
      <point x="109" y="510"/>
      <point x="56" y="510" type="curve" smooth="yes"/>
      <point x="53" y="510" type="line"/>
      <point x="44" y="464" type="line"/>
      <point x="119" y="464" type="line"/>
      <point x="77" y="215" type="line" smooth="yes"/>
      <point x="71" y="180"/>
      <point x="67" y="145"/>
      <point x="67" y="119" type="curve" smooth="yes"/>
      <point x="67" y="27"/>
      <point x="129" y="-11"/>
    </contour>
  </outline>
</glyph>
<glyph name="u" format="2">
  <advance width="625"/>
  <unicode hex="0075"/>
  <outline>
    <contour>
      <point x="485" y="-9" type="curve" smooth="yes"/>
      <point x="530" y="-9"/>
      <point x="569" y="8"/>
      <point x="590" y="23" type="curve"/>
      <point x="599" y="71" type="line"/>
      <point x="588" y="66"/>
      <point x="563" y="52"/>
      <point x="538" y="52" type="curve" smooth="yes"/>
      <point x="517" y="52"/>
      <point x="507" y="61"/>
      <point x="507" y="81" type="curve" smooth="yes"/>
      <point x="507" y="95"/>
      <point x="510" y="118"/>
      <point x="516" y="150" type="curve" smooth="yes"/>
      <point x="581" y="515" type="line"/>
      <point x="443" y="515" type="line"/>
      <point x="385" y="183" type="line"/>
      <point x="340" y="104"/>
      <point x="297" y="62"/>
      <point x="251" y="62" type="curve" smooth="yes"/>
      <point x="216" y="62"/>
      <point x="204" y="84"/>
      <point x="204" y="116" type="curve" smooth="yes"/>
      <point x="204" y="134"/>
      <point x="208" y="156"/>
      <point x="213" y="185" type="curve" smooth="yes"/>
      <point x="274" y="515" type="line"/>
      <point x="62" y="515" type="line"/>
      <point x="54" y="469" type="line"/>
      <point x="67" y="467" type="line" smooth="yes"/>
      <point x="106" y="461"/>
      <point x="126" y="453"/>
      <point x="121" y="427" type="curve" smooth="yes"/>
      <point x="76" y="194" type="line" smooth="yes"/>
      <point x="69" y="158"/>
      <point x="66" y="133"/>
      <point x="66" y="110" type="curve" smooth="yes"/>
      <point x="66" y="38"/>
      <point x="111" y="-11"/>
      <point x="193" y="-11" type="curve" smooth="yes"/>
      <point x="272" y="-11"/>
      <point x="327" y="34"/>
      <point x="378" y="111" type="curve"/>
      <point x="378" y="105"/>
      <point x="377" y="99"/>
      <point x="377" y="94" type="curve" smooth="yes"/>
      <point x="377" y="25"/>
      <point x="419" y="-9"/>
    </contour>
  </outline>
</glyph>
<glyph name="v" format="2">
  <advance width="531"/>
  <unicode hex="0076"/>
  <outline>
    <contour>
      <point x="537" y="509" type="curve"/>
      <point x="537" y="515" type="line"/>
      <point x="431" y="515" type="line"/>
      <point x="436" y="445"/>
      <point x="334" y="174"/>
      <point x="265" y="69" type="curve"/>
      <point x="215" y="515" type="line"/>
      <point x="28" y="515" type="line"/>
      <point x="20" y="469" type="line"/>
      <point x="31" y="467" type="line" smooth="yes"/>
      <point x="70" y="460"/>
      <point x="88" y="453"/>
      <point x="92" y="421" type="curve" smooth="yes"/>
      <point x="147" y="0" type="line"/>
      <point x="272" y="0" type="line"/>
      <point x="337" y="66"/>
      <point x="529" y="428"/>
    </contour>
  </outline>
</glyph>
<glyph name="w" format="2">
  <advance width="813"/>
  <unicode hex="0077"/>
  <outline>
    <contour>
      <point x="573" y="0" type="line"/>
      <point x="632" y="66"/>
      <point x="807" y="427"/>
      <point x="816" y="509" type="curve"/>
      <point x="816" y="515" type="line"/>
      <point x="711" y="515" type="line"/>
      <point x="713" y="448"/>
      <point x="627" y="183"/>
      <point x="566" y="75" type="curve"/>
      <point x="517" y="515" type="line"/>
      <point x="408" y="515" type="line"/>
      <point x="402" y="449"/>
      <point x="303" y="203"/>
      <point x="249" y="89" type="curve"/>
      <point x="213" y="515" type="line"/>
      <point x="28" y="515" type="line"/>
      <point x="20" y="469" type="line"/>
      <point x="31" y="467" type="line" smooth="yes"/>
      <point x="70" y="460"/>
      <point x="89" y="453"/>
      <point x="92" y="421" type="curve" smooth="yes"/>
      <point x="136" y="0" type="line"/>
      <point x="260" y="0" type="line"/>
      <point x="287" y="42"/>
      <point x="378" y="241"/>
      <point x="415" y="343" type="curve"/>
      <point x="457" y="0" type="line"/>
    </contour>
  </outline>
</glyph>
<glyph name="x" format="2">
  <advance width="541"/>
  <unicode hex="0078"/>
  <outline>
    <contour>
      <point x="387" y="142" type="curve" smooth="yes"/>
      <point x="335" y="280" type="line"/>
      <point x="541" y="506" type="line"/>
      <point x="541" y="515" type="line"/>
      <point x="437" y="515" type="line"/>
      <point x="318" y="327" type="line"/>
      <point x="247" y="515" type="line"/>
      <point x="70" y="515" type="line"/>
      <point x="63" y="469" type="line"/>
      <point x="76" y="467" type="line" smooth="yes"/>
      <point x="118" y="461"/>
      <point x="133" y="454"/>
      <point x="144" y="424" type="curve" smooth="yes"/>
      <point x="208" y="254" type="line"/>
      <point x="-5" y="9" type="line"/>
      <point x="-5" y="0" type="line"/>
      <point x="101" y="0" type="line"/>
      <point x="229" y="200" type="line"/>
      <point x="258" y="122" type="line" smooth="yes"/>
      <point x="295" y="22"/>
      <point x="331" y="-10"/>
      <point x="403" y="-10" type="curve"/>
      <point x="448" y="-10"/>
      <point x="486" y="3"/>
      <point x="506" y="17" type="curve"/>
      <point x="510" y="66" type="line"/>
      <point x="502" y="61"/>
      <point x="481" y="51"/>
      <point x="461" y="51" type="curve" smooth="yes"/>
      <point x="428" y="51"/>
      <point x="414" y="71"/>
    </contour>
  </outline>
</glyph>
<glyph name="y" format="2">
  <advance width="537"/>
  <unicode hex="0079"/>
  <outline>
    <contour>
      <point x="-28" y="-224" type="line"/>
      <point x="121" y="-224" type="line"/>
      <point x="150" y="-202"/>
      <point x="251" y="-38"/>
      <point x="285" y="6" type="curve"/>
      <point x="336" y="71"/>
      <point x="529" y="424"/>
      <point x="539" y="509" type="curve"/>
      <point x="539" y="515" type="line"/>
      <point x="433" y="515" type="line"/>
      <point x="437" y="446"/>
      <point x="346" y="208"/>
      <point x="291" y="107" type="curve"/>
      <point x="213" y="515" type="line"/>
      <point x="29" y="515" type="line"/>
      <point x="21" y="469" type="line"/>
      <point x="31" y="467" type="line" smooth="yes"/>
      <point x="70" y="460"/>
      <point x="85" y="453"/>
      <point x="92" y="421" type="curve" smooth="yes"/>
      <point x="193" y="-29" type="line"/>
      <point x="132" y="-83"/>
      <point x="7" y="-192"/>
      <point x="-28" y="-207" type="curve"/>
    </contour>
  </outline>
</glyph>
<glyph name="z" format="2">
  <advance width="525"/>
  <unicode hex="007A"/>
  <anchor x="260.0255639097744" y="551.0" name="top"/>
  <anchor x="253.85112781954888" y="0.0" name="bottom"/>
  <outline>
    <contour>
      <point x="63" y="0" type="line"/>
      <point x="147" y="87" type="line"/>
      <point x="216" y="26"/>
      <point x="272" y="-11"/>
      <point x="344" y="-11" type="curve" smooth="yes"/>
      <point x="452" y="-11"/>
      <point x="501" y="72"/>
      <point x="495" y="208" type="curve"/>
      <point x="455" y="216" type="line"/>
      <point x="441" y="129"/>
      <point x="403" y="99"/>
      <point x="345" y="99" type="curve" smooth="yes"/>
      <point x="300" y="99"/>
      <point x="255" y="115"/>
      <point x="202" y="146" type="curve"/>
      <point x="502" y="460" type="line"/>
      <point x="510" y="515" type="line"/>
      <point x="103" y="515" type="line"/>
      <point x="68" y="319" type="line"/>
      <point x="116" y="319" type="line"/>
      <point x="135" y="375" type="line" smooth="yes"/>
      <point x="147" y="410"/>
      <point x="178" y="416"/>
      <point x="256" y="416" type="curve" smooth="yes"/>
      <point x="376" y="416" type="line"/>
      <point x="12" y="32" type="line"/>
      <point x="8" y="0" type="line"/>
    </contour>
  </outline>
</glyph>
<glyph name="braceleft" format="2">
  <advance width="341"/>
  <unicode hex="007B"/>
  <outline>
    <contour>
      <point x="264" y="-140" type="curve"/>
      <point x="277" y="-96" type="line"/>
      <point x="185" y="-88"/>
      <point x="140" y="-62"/>
      <point x="140" y="1" type="curve" smooth="yes"/>
      <point x="140" y="88"/>
      <point x="264" y="184"/>
      <point x="264" y="238" type="curve" smooth="yes"/>
      <point x="264" y="272"/>
      <point x="245" y="291"/>
      <point x="132" y="316" type="curve"/>
      <point x="133" y="320" type="line"/>
      <point x="262" y="332"/>
      <point x="284" y="352"/>
      <point x="284" y="394" type="curve" smooth="yes"/>
      <point x="284" y="440"/>
      <point x="243" y="521"/>
      <point x="243" y="593" type="curve" smooth="yes"/>
      <point x="243" y="670"/>
      <point x="298" y="701"/>
      <point x="404" y="703" type="curve"/>
      <point x="399" y="749" type="line"/>
      <point x="230" y="756"/>
      <point x="134" y="705"/>
      <point x="134" y="602" type="curve" smooth="yes"/>
      <point x="134" y="532"/>
      <point x="176" y="453"/>
      <point x="206" y="377" type="curve"/>
      <point x="64" y="343" type="line"/>
      <point x="56" y="303" type="line"/>
      <point x="190" y="248" type="line"/>
      <point x="119" y="161"/>
      <point x="31" y="84"/>
      <point x="31" y="3" type="curve" smooth="yes"/>
      <point x="31" y="-100"/>
      <point x="133" y="-139"/>
    </contour>
  </outline>
</glyph>
<glyph name="endash" format="2">
  <advance width="593"/>
  <unicode hex="2013"/>
  <outline>
    <contour>
      <point x="71" y="348" type="line"/>
      <point x="60" y="284" type="line"/>
      <point x="522" y="284" type="line"/>
      <point x="533" y="348" type="line"/>
    </contour>
  </outline>
</glyph>
<glyph name="emdash" format="2">
  <advance width="930"/>
  <unicode hex="2014"/>
  <outline>
    <contour>
      <point x="71" y="348" type="line"/>
      <point x="60" y="285" type="line"/>
      <point x="859" y="285" type="line"/>
      <point x="870" y="348" type="line"/>
    </contour>
  </outline>
</glyph>
<glyph name="quoteright" format="2">
  <advance width="234"/>
  <unicode hex="2019"/>
  <outline>
    <contour>
      <point x="118" y="431" type="line"/>
      <point x="194" y="486"/>
      <point x="252" y="567"/>
      <point x="252" y="638" type="curve" smooth="yes"/>
      <point x="252" y="691"/>
      <point x="219" y="717"/>
      <point x="175" y="717" type="curve" smooth="yes"/>
      <point x="130" y="717"/>
      <point x="102" y="689"/>
      <point x="102" y="651" type="curve" smooth="yes"/>
      <point x="102" y="613"/>
      <point x="133" y="586"/>
      <point x="174" y="586" type="curve" smooth="yes"/>
      <point x="179" y="586"/>
      <point x="183" y="586"/>
      <point x="186" y="587" type="curve"/>
      <point x="164" y="545"/>
      <point x="117" y="507"/>
      <point x="61" y="476" type="curve"/>
    </contour>
  </outline>
</glyph>
<glyph name="quotedblright" format="2">
  <advance width="428"/>
  <unicode hex="201D"/>
  <outline>
    <contour>
      <point x="118" y="431" type="line"/>
      <point x="194" y="486"/>
      <point x="252" y="567"/>
      <point x="252" y="638" type="curve" smooth="yes"/>
      <point x="252" y="691"/>
      <point x="219" y="717"/>
      <point x="175" y="717" type="curve" smooth="yes"/>
      <point x="130" y="717"/>
      <point x="102" y="689"/>
      <point x="102" y="651" type="curve" smooth="yes"/>
      <point x="102" y="613"/>
      <point x="133" y="586"/>
      <point x="174" y="586" type="curve" smooth="yes"/>
      <point x="179" y="586"/>
      <point x="183" y="586"/>
      <point x="186" y="587" type="curve"/>
      <point x="164" y="545"/>
      <point x="117" y="507"/>
      <point x="61" y="476" type="curve"/>
    </contour>
    <contour>
      <point x="313" y="431" type="line"/>
      <point x="389" y="486"/>
      <point x="447" y="567"/>
      <point x="447" y="638" type="curve" smooth="yes"/>
      <point x="447" y="691"/>
      <point x="414" y="717"/>
      <point x="370" y="717" type="curve" smooth="yes"/>
      <point x="325" y="717"/>
      <point x="297" y="689"/>
      <point x="297" y="651" type="curve" smooth="yes"/>
      <point x="297" y="613"/>
      <point x="328" y="586"/>
      <point x="369" y="586" type="curve" smooth="yes"/>
      <point x="374" y="586"/>
      <point x="378" y="586"/>
      <point x="381" y="587" type="curve"/>
      <point x="359" y="545"/>
      <point x="312" y="507"/>
      <point x="256" y="476" type="curve"/>
    </contour>
  </outline>
</glyph>
<glyph name="minus" format="2">
  <advance width="562"/>
  <unicode hex="2212"/>
  <outline>
    <contour>
      <point x="502" y="373" type="line"/>
      <point x="75" y="373" type="line"/>
      <point x="64" y="309" type="line"/>
      <point x="491" y="309" type="line"/>
    </contour>
  </outline>
</glyph>
